<?xml version="1.0" encoding="utf-8"?>
<!-- Generator: Adobe Illustrator 21.0.0, SVG Export Plug-In . SVG Version: 6.00 Build 0)  -->
<svg version="1.1" id="Capa_1" xmlns="http://www.w3.org/2000/svg" xmlns:xlink="http://www.w3.org/1999/xlink" x="0px" y="0px"
	 viewBox="0 0 150 93" style="enable-background:new 0 0 150 93;" xml:space="preserve">
<style type="text/css">
	.st0{fill:#003E6C;}
</style>
<g>
	<g>
		<path class="st0" d="M50.9,76.9l-29.9,0c-1.1,0-1.9-0.9-1.9-1.9l0-71.8c0-1.1,0.9-1.9,1.9-1.9l29.9,0c1.1,0,1.9,0.9,1.9,1.9
			l0,71.8C52.8,76,51.9,76.9,50.9,76.9z M22.9,73L49,73l0-67.9l-26.1,0L22.9,73z"/>
		<path class="st0" d="M92.1,76.9l-29.9,0c-1.1,0-1.9-0.9-1.9-1.9l0-61.3c0-1.1,0.9-1.9,1.9-1.9l29.9,0c1.1,0,1.9,0.9,1.9,1.9L94,75
			C94,76,93.1,76.9,92.1,76.9z M64.1,73l26.1,0l0-57.5l-26.1,0L64.1,73z"/>
		<path class="st0" d="M134.3,76.9l-29.9,0c-1.1,0-1.9-0.9-1.9-1.9l0-72.4c0-1.1,0.9-1.9,1.9-1.9l29.9,0c1.1,0,1.9,0.9,1.9,1.9
			l0,72.4C136.2,76,135.3,76.9,134.3,76.9z M106.2,73l26.1,0l0-68.6l-26.1,0L106.2,73z"/>
		<path class="st0" d="M146.1,91.8l-141.6,0c-1.1,0-1.9-0.9-1.9-1.9S3.4,88,4.4,88l141.6,0c1.1,0,1.9,0.9,1.9,1.9
			C148,91,147.1,91.8,146.1,91.8z"/>
	</g>
</g>
</svg>
