<?xml version="1.0" encoding="utf-8"?>
<!-- Generator: Adobe Illustrator 21.0.0, SVG Export Plug-In . SVG Version: 6.00 Build 0)  -->
<svg version="1.1" id="Capa_1" xmlns="http://www.w3.org/2000/svg" xmlns:xlink="http://www.w3.org/1999/xlink" x="0px" y="0px"
	 viewBox="0 0 150 162" style="enable-background:new 0 0 150 162;" xml:space="preserve">
<style type="text/css">
	.st0{fill:#494742;}
</style>
<g>
	<path class="st0" d="M82.3,118.8c-2.5,0-5-0.8-7.2-2.2L35.8,89.8c-2.9-1.9-4.6-5.2-4.6-8.6s1.7-6.7,4.6-8.6l39.3-26.8
		c3.9-2.7,9-3,13.2-0.7c4.2,2.2,6.8,6.6,6.8,11.3v7.2h42.4c5.8,0,10.5,4.7,10.5,10.5v17.7c0,5.8-4.7,10.5-10.5,10.5H95.1v3.8
		c0,4.8-2.6,9.1-6.8,11.3C86.4,118.3,84.3,118.8,82.3,118.8z M42.5,81.4l38.8,26.1c0.8,0.5,1.5,0.3,1.9,0.1c0.4-0.2,1-0.6,1-1.6
		v-4.4c0-5.8,4.7-10.5,10.5-10.5H137V74.6H94.5c-5.8,0-10.5-4.7-10.5-10.5v-7.7c0-0.9-0.6-1.4-1-1.6c-0.4-0.2-1.1-0.4-1.9,0.1
		L42.5,81.4z"/>
	<path class="st0" d="M96.3,159.5H17.8c-8.2,0-14.8-6.6-14.8-14.8V16.5C3,8.4,9.6,1.7,17.8,1.7h78.5c8.2,0,14.8,6.6,14.8,14.8V47
		c0,3-2.5,5.5-5.5,5.5c-3,0-5.5-2.5-5.5-5.5V16.5c0-2.1-1.7-3.8-3.8-3.8H17.8c-2.1,0-3.8,1.7-3.8,3.8v128.2c0,2.1,1.7,3.8,3.8,3.8
		h78.5c2.1,0,3.8-1.7,3.8-3.8V117c0-3,2.5-5.5,5.5-5.5c3,0,5.5,2.5,5.5,5.5v27.7C111.1,152.9,104.5,159.5,96.3,159.5z"/>
</g>
</svg>
