<?xml version="1.0" encoding="UTF-8" standalone="no"?>
<!DOCTYPE svg PUBLIC "-//W3C//DTD SVG 20010904//EN"
              "http://www.w3.org/TR/2001/REC-SVG-20010904/DTD/svg10.dtd">

<svg xmlns="http://www.w3.org/2000/svg"
     width="5.68889in" height="5.68889in"
     viewBox="0 0 512 512">
  <path id="Selección"
        fill="none" stroke="black" stroke-width="1"
        d="M 403.00,0.63
           C 420.14,5.65 430.02,22.75 426.33,40.00
             424.19,50.01 414.32,64.05 408.68,73.00
             408.68,73.00 374.80,128.00 374.80,128.00
             374.80,128.00 307.42,237.00 307.42,237.00
             307.42,237.00 215.58,386.00 215.58,386.00
             215.58,386.00 167.40,464.00 167.40,464.00
             167.40,464.00 150.68,491.00 150.68,491.00
             146.42,497.76 143.19,503.39 136.00,507.65
             128.84,511.89 124.01,512.09 116.00,512.00
             96.68,511.76 84.57,495.42 85.01,477.00
             85.30,465.12 96.33,450.08 102.68,440.00
             102.68,440.00 144.00,373.00 144.00,373.00
             144.00,373.00 183.58,309.00 183.58,309.00
             183.58,309.00 308.81,106.00 308.81,106.00
             308.81,106.00 354.58,32.00 354.58,32.00
             363.18,18.11 368.53,4.62 386.00,0.63
             390.46,-0.16 398.72,-0.43 403.00,0.63 Z" />
</svg>
