<?xml version="1.0" encoding="utf-8"?>
<!-- Generator: Adobe Illustrator 22.0.0, SVG Export Plug-In . SVG Version: 6.00 Build 0)  -->
<svg version="1.1" id="Capa_1" xmlns="http://www.w3.org/2000/svg" xmlns:xlink="http://www.w3.org/1999/xlink" x="0px" y="0px"
	 viewBox="0 0 408.6 285.3" style="enable-background:new 0 0 408.6 285.3;" xml:space="preserve">
<style type="text/css">
	.st0{fill-rule:evenodd;clip-rule:evenodd;fill:#231F20;}
</style>
<g>
	<path class="st0" d="M19.3,267v-19h370c0,11.9,2.1,23-4,23h-362C21,271,19.3,269.3,19.3,267L19.3,267z M55.3,235V44h298v190h-95
		C189.6,234,124.1,235,55.3,235L55.3,235z M42.3,38c0-4.7,2.3-7,7-7h310c4.7,0,7,2.3,7,7v196h11V23c0-3.1-0.9-6-4-6h-338
		c-3.1,0-4,2.9-4,6v212h11V38L42.3,38z M18.3,20v215c-14.4,0-13,0.6-13,27c0,11,4.8,22,17,22h364c20.2,0,17-26.3,17-39
		c0-10.7-4.9-11-13-11V19c0-9.6-9.9-16-22-16h-328C29.4,3,18.3,7.9,18.3,20z"/>
	<path class="st0" d="M153.3,191c-50.6,0-71.4-62-39.3-94.3c50.6-50.8,126,22.3,77.5,77.5C183.7,183.2,166.5,191,153.3,191
		L153.3,191z M85.3,133c0,29.7,13.7,51.8,37,64c25.4,13.4,57.5,8,78.8-13.3c25.8-25.8,26-70.5-1-97.5C155.4,41.6,85.3,78.3,85.3,133
		z"/>
	<path class="st0" d="M130.3,120c0,9.1,4.5,15.5,10,19c9.1,5.7,20,0.6,20,12c0,7.1-7.8,9.8-12.8,5.8c-6.2-4.9,0.4-12.8-11.2-12.8
		c-4.7,0-5.6,5.7-5.3,8.3c0.4,4.6,2.1,8.1,4.2,10.8c3.1,4.1,5.8,5.1,8,7c4.3,3.7,0.3-0.3,2.7,4.3c3.1,5.7,12.3,5.3,12.5-3.5
		c13-1.1,25.1-25.1,6.2-38.2c-3.7-2.6-5.7-3.2-11.1-3.9c-14.6-1.8-9.1-16-3-16c12.8,0,7.1,6.1,11.2,11.8c2.1,3,11.8,5.8,11.8-5.8
		c0-6.9-4-12.6-8.4-15.6c-1.6-1-2.4-1.1-3.8-2.2c-4.5-3.1-2.6-9.5-9.6-9c-1.3,0.1-2.9,0.9-3.9,1.9c-4.5,4.3,0.7,3.4-4.8,7.2
		c-1.3,0.9-2.1,1-3.8,2.2C134.5,106.4,130.3,113.2,130.3,120z"/>
	<path class="st0" d="M298.3,115c0,2.6,5.7,11.5,7,14h-70c-2,3-3,2-3,6c0,10,15.1,7,32,7c13,0,26,0,39,0c-1.2,4.4-7,9.5-7,13
		c0,7.4,4.7,7,8,7c4.3,0,19-23.5,19-27c0-3.5-5.5-11.4-7.3-14.7c-5.5-9.8-4.8-11.3-12.7-11.3C300.5,109,298.3,112.5,298.3,115z"/>
	<path class="st0" d="M176.3,258c0,5,4.8,7,10,7h36c14.4,0,11.7-14,2-14h-40C180.1,251,176.3,254.1,176.3,258z"/>
	<path class="st0" d="M239.3,178h35c11.3,0,11.4-14,1-14h-37C227.8,164,228.6,178,239.3,178z"/>
	<path class="st0" d="M238.3,107h37c10.6,0,9.9-14-1-14h-33C226.9,93,228.6,107,238.3,107z"/>
</g>
</svg>
