<?xml version="1.0" encoding="utf-8"?>
<!-- Generator: Adobe Illustrator 21.0.0, SVG Export Plug-In . SVG Version: 6.00 Build 0)  -->
<svg version="1.1" id="Capa_1" xmlns="http://www.w3.org/2000/svg" xmlns:xlink="http://www.w3.org/1999/xlink" x="0px" y="0px"
	 viewBox="0 0 1201 344" style="enable-background:new 0 0 1201 344;" xml:space="preserve">
<style type="text/css">
	.st0{fill:#003E6C;}
	.st1{fill:#006FB9;}
	.st2{clip-path:url(#SVGID_2_);fill:#FFFFFF;}
	.st3{fill:#FFFFFF;}
	.st4{font-family:'Roboto-Black';}
	.st5{font-size:21.2203px;}
	.st6{font-family:'Roboto-Regular';}
	.st7{font-size:16.6337px;}
	.st8{font-size:15.5058px;}
	.st9{opacity:0.38;}
	.st10{fill:url(#SVGID_3_);}
	.st11{fill:url(#SVGID_4_);}
	.st12{fill:url(#SVGID_5_);}
	.st13{fill:url(#SVGID_6_);}
	.st14{fill:url(#SVGID_7_);}
	.st15{fill:url(#SVGID_8_);}
	.st16{fill:url(#SVGID_9_);}
	.st17{fill:none;stroke:#FFFFFF;stroke-width:1.8401;stroke-linecap:round;stroke-linejoin:round;stroke-miterlimit:10;}
	.st18{opacity:0.38;fill:url(#SVGID_10_);}
	.st19{fill:none;stroke:#FFFFFF;stroke-width:1.7752;stroke-miterlimit:10;}
	.st20{fill:#006FB9;stroke:#FFFFFF;stroke-miterlimit:10;}
	.st21{font-family:'Roboto-Light';}
	.st22{font-size:37.3244px;}
	.st23{font-size:28.9654px;}
	.st24{fill:none;stroke:#850024;stroke-miterlimit:10;}
	.st25{opacity:8.000000e-02;fill:none;stroke:#1A1A1A;stroke-width:1.3552;stroke-miterlimit:10;}
	.st26{fill:none;}
</style>
<g>
	<rect x="-2" y="-1.1" class="st0" width="1201" height="346.1"/>
	<rect x="755.5" y="129.2" class="st1" width="445.5" height="93.5"/>
	<g>
		<defs>
			<rect id="SVGID_1_" x="-109" y="0.4" width="1417.7" height="343.8"/>
		</defs>
		<clipPath id="SVGID_2_">
			<use xlink:href="#SVGID_1_"  style="overflow:visible;"/>
		</clipPath>
	</g>
	<g>
		<text transform="matrix(1.0349 0 0 1 773.4999 167.5342)" class="st3 st4 st5">AHORA PODRÁS CONSULTAR</text>
	</g>
	<g>
		<text transform="matrix(1.0349 0 0 1 770.2685 186.98)"><tspan x="0" y="0" class="st3 st6 st7">El comportamiento de Billetes y Monedas </tspan><tspan x="0" y="16.6" class="st3 st6 st8">Aquí en nuestro portal</tspan></text>
	</g>
	<g class="st9">
		<linearGradient id="SVGID_3_" gradientUnits="userSpaceOnUse" x1="320.2236" y1="137.3766" x2="320.2236" y2="69.4305">
			<stop  offset="7.418119e-03" style="stop-color:#FFFFFF;stop-opacity:0"/>
			<stop  offset="0.9954" style="stop-color:#FFFFFF"/>
		</linearGradient>
		<path class="st10" d="M315.6,122.7l4.6,20.4l4.6-20.4h6.5V152h-5v-6.9l0.5-14l-5,20.9h-3.3l-5-20.9l0.5,14.1v6.9h-5v-29.4H315.6z"
			/>
		<linearGradient id="SVGID_4_" gradientUnits="userSpaceOnUse" x1="342.9236" y1="137.3766" x2="342.9236" y2="69.4305">
			<stop  offset="7.418119e-03" style="stop-color:#FFFFFF;stop-opacity:0"/>
			<stop  offset="0.9954" style="stop-color:#FFFFFF"/>
		</linearGradient>
		<path class="st11" d="M351.9,137.9c0,2.9-0.4,5.4-1.1,7.6c-0.7,2.2-1.8,3.9-3.2,5.1c-1.4,1.2-2.9,1.8-4.7,1.8
			c-1.8,0-3.3-0.6-4.7-1.7c-1.4-1.1-2.4-2.8-3.2-4.9c-0.8-2.1-1.2-4.6-1.2-7.4v-1.7c0-2.9,0.4-5.4,1.1-7.6c0.7-2.2,1.8-3.9,3.2-5.1
			c1.4-1.2,3-1.8,4.7-1.8c1.7,0,3.3,0.6,4.7,1.8c1.4,1.2,2.4,2.9,3.2,5.1c0.8,2.2,1.1,4.7,1.2,7.5V137.9z M346.9,136.7
			c0-2.9-0.3-5.1-1-6.6c-0.7-1.5-1.7-2.3-2.9-2.3c-2.5,0-3.8,2.7-3.9,8l0,2.2c0,2.9,0.3,5.1,1,6.6c0.7,1.5,1.7,2.3,3,2.3
			c1.3,0,2.2-0.8,2.9-2.3c0.7-1.5,1-3.7,1-6.6V136.7z"/>
		<linearGradient id="SVGID_5_" gradientUnits="userSpaceOnUse" x1="363.0919" y1="137.3766" x2="363.0919" y2="69.4305">
			<stop  offset="7.418119e-03" style="stop-color:#FFFFFF;stop-opacity:0"/>
			<stop  offset="0.9954" style="stop-color:#FFFFFF"/>
		</linearGradient>
		<path class="st12" d="M371.7,152h-4.9l-7.3-18.3V152h-5v-29.4h5l7.3,18.3v-18.3h5V152z"/>
		<linearGradient id="SVGID_6_" gradientUnits="userSpaceOnUse" x1="381.9377" y1="137.3766" x2="381.9377" y2="69.4305">
			<stop  offset="7.418119e-03" style="stop-color:#FFFFFF;stop-opacity:0"/>
			<stop  offset="0.9954" style="stop-color:#FFFFFF"/>
		</linearGradient>
		<path class="st13" d="M387.6,139.6h-7.8v7h9.2v5.4h-14.2v-29.4H389v5.5h-9.2v6.2h7.8V139.6z"/>
		<linearGradient id="SVGID_7_" gradientUnits="userSpaceOnUse" x1="399.1291" y1="137.3766" x2="399.1291" y2="69.4305">
			<stop  offset="7.418119e-03" style="stop-color:#FFFFFF;stop-opacity:0"/>
			<stop  offset="0.9954" style="stop-color:#FFFFFF"/>
		</linearGradient>
		<path class="st14" d="M391,152v-29.4h6.6c1.8,0,3.5,0.6,4.9,1.8c1.5,1.2,2.6,2.8,3.4,5c0.8,2.1,1.2,4.5,1.2,7.2v1.4
			c0,2.7-0.4,5.1-1.2,7.2c-0.8,2.1-1.9,3.8-3.4,5c-1.4,1.2-3.1,1.8-4.8,1.8H391z M396,128.1v18.5h1.7c1.4,0,2.5-0.7,3.3-2.2
			c0.8-1.4,1.1-3.6,1.1-6.4v-1.3c0-2.8-0.4-5-1.1-6.4c-0.8-1.4-1.9-2.2-3.3-2.2H396z"/>
		<linearGradient id="SVGID_8_" gradientUnits="userSpaceOnUse" x1="417.7838" y1="137.3766" x2="417.7838" y2="69.4305">
			<stop  offset="7.418119e-03" style="stop-color:#FFFFFF;stop-opacity:0"/>
			<stop  offset="0.9954" style="stop-color:#FFFFFF"/>
		</linearGradient>
		<path class="st15" d="M421.2,146.5h-6.8l-1.2,5.5h-5.3l7.6-29.4h4.7l7.6,29.4h-5.3L421.2,146.5z M415.5,141.1h4.4l-2.2-10.2
			L415.5,141.1z"/>
		<linearGradient id="SVGID_9_" gradientUnits="userSpaceOnUse" x1="436.6652" y1="137.3766" x2="436.6652" y2="69.4305">
			<stop  offset="7.418119e-03" style="stop-color:#FFFFFF;stop-opacity:0"/>
			<stop  offset="0.9954" style="stop-color:#FFFFFF"/>
		</linearGradient>
		<path class="st16" d="M439.8,144.2c0-1-0.3-1.8-0.8-2.4c-0.5-0.6-1.4-1.2-2.7-1.8c-1.3-0.6-2.3-1.2-3.2-1.8c-2.7-1.9-4-4.4-4-7.7
			c0-1.6,0.3-3.1,1-4.3c0.7-1.2,1.6-2.2,2.8-2.9c1.2-0.7,2.6-1,4.1-1c1.5,0,2.8,0.4,4,1.1c1.2,0.8,2.1,1.8,2.7,3.2s1,3,1,4.8h-5
			c0-1.2-0.3-2.1-0.8-2.8c-0.5-0.7-1.2-1-2.1-1c-0.9,0-1.6,0.3-2.1,0.8c-0.5,0.6-0.8,1.3-0.8,2.1c0,0.8,0.3,1.4,0.8,2
			c0.6,0.6,1.6,1.2,3,1.9c1.4,0.7,2.6,1.4,3.5,2.1c2.2,1.8,3.3,4.4,3.3,7.6c0,2.6-0.7,4.6-2,6.1c-1.4,1.5-3.2,2.2-5.6,2.2
			c-1.7,0-3.2-0.4-4.5-1.3c-1.4-0.9-2.4-2-3.1-3.5c-0.7-1.5-1-3.2-1-5.1h5c0,1.6,0.3,2.7,0.9,3.5c0.6,0.7,1.5,1.1,2.8,1.1
			c0.8,0,1.5-0.3,1.9-0.8C439.6,145.8,439.8,145.1,439.8,144.2z"/>
	</g>
	<g>
		<g>
			<g>
				<rect x="191.1" y="67.5" class="st17" width="88.5" height="54.3"/>
			</g>
			<g>
				<circle class="st17" cx="234.7" cy="94" r="14.4"/>
			</g>
			<g>
				<circle class="st0" cx="278.5" cy="115.1" r="14.6"/>
				<circle class="st17" cx="278.5" cy="115.1" r="14.6"/>
			</g>
			<g>
				<circle class="st0" cx="263.7" cy="122.7" r="14.6"/>
				<circle class="st17" cx="263.7" cy="122.7" r="14.6"/>
			</g>
			<g>
				<path class="st17" d="M205.7,68.2c0,7.4-6,13.4-13.4,13.4"/>
			</g>
			<g>
				<path class="st17" d="M277.3,81.6c-7.4,0-13.4-6-13.4-13.4"/>
			</g>
			<g>
				<path class="st17" d="M192.1,107.5c7.4,0,13.4,6,13.4,13.4"/>
			</g>
		</g>
	</g>
	<linearGradient id="SVGID_10_" gradientUnits="userSpaceOnUse" x1="374.8857" y1="311.6319" x2="374.8857" y2="166.4882">
		<stop  offset="7.418119e-03" style="stop-color:#FFFFFF;stop-opacity:0"/>
		<stop  offset="0.9954" style="stop-color:#FFFFFF"/>
	</linearGradient>
	<path class="st18" d="M106.9,304.6c0,0,107.9-185.4,247.7-106.7c156,87.8,255-10.5,288.4-93.1v200.5"/>
	<path class="st19" d="M106.9,304.6c0,0,107.9-185.4,247.7-106.7c156,87.8,255-10.5,288.4-93.1"/>
	<circle class="st20" cx="412.2" cy="224.2" r="5.9"/>
	<circle class="st1" cx="103.9" cy="306.8" r="5.9"/>
	<circle class="st20" cx="642.9" cy="104.9" r="5.9"/>
	<g>
		<text transform="matrix(1 0 0 1 305.9819 94.3271)" class="st3 st21 st22">BILLETES Y</text>
	</g>
	<text transform="matrix(1 0 0 1 307.4033 122.2617)" class="st1 st4 st23">MONEDAS</text>
	<polyline class="st24" points="586,187.8 720.9,187.8 720.9,201.4 	"/>
	<line class="st25" x1="271.9" y1="18.9" x2="271.9" y2="330.1"/>
	<line class="st25" x1="148.9" y1="18.9" x2="148.9" y2="330.1"/>
	<line class="st25" x1="390.4" y1="18.9" x2="390.4" y2="330.1"/>
	<line class="st25" x1="34.5" y1="18.9" x2="34.5" y2="330.1"/>
	<line class="st25" x1="508.9" y1="18.9" x2="508.9" y2="330.1"/>
	<line class="st25" x1="627.4" y1="18.9" x2="627.4" y2="330.1"/>
	<line class="st25" x1="744.8" y1="18.9" x2="744.8" y2="330.1"/>
</g>
</svg>
