<?xml version="1.0" encoding="utf-8"?>
<!-- Generator: Adobe Illustrator 22.0.0, SVG Export Plug-In . SVG Version: 6.00 Build 0)  -->
<svg version="1.1" id="Capa_1" xmlns="http://www.w3.org/2000/svg" xmlns:xlink="http://www.w3.org/1999/xlink" x="0px" y="0px"
	 viewBox="0 0 201.9 137.5" style="enable-background:new 0 0 201.9 137.5;" xml:space="preserve">
<style type="text/css">
	.st0{fill-rule:evenodd;clip-rule:evenodd;fill:#0074BC;}
</style>
<path class="st0" d="M99.5,135.5c6.6,0,8-1.4,8-8c0-4.6-48.6-34.7-54.2-38.8L34.5,75.5l151,0c7.6,0.1,15,0.2,15-7c0-10-21.1-7-36-7
	c-43.3,0-86.7,0-130,0c8.6-7.5,73-47.1,73-52c0-19-22.8,0.6-32.3,7.7L14.9,57.9C1.7,66.7,0.7,69.7,14.3,78.7L99.5,135.5z"/>
</svg>
