<?xml version="1.0" encoding="utf-8"?>
<!-- Generator: Adobe Illustrator 22.0.0, SVG Export Plug-In . SVG Version: 6.00 Build 0)  -->
<svg version="1.1" id="Capa_1" xmlns="http://www.w3.org/2000/svg" xmlns:xlink="http://www.w3.org/1999/xlink" x="0px" y="0px"
	 viewBox="0 0 125.9 204.5" style="enable-background:new 0 0 125.9 204.5;" xml:space="preserve">
<style type="text/css">
	.st0{fill-rule:evenodd;clip-rule:evenodd;fill:#231F20;}
</style>
<path class="st0" d="M53.2,176.1c0-7.3,9.5-16.4,19.2-9.2c5,3.6,8.3,20.2-9.2,20.2C56.2,187.1,53.2,179.1,53.2,176.1L53.2,176.1z
	 M29.2,70.1c-2.8,0-6.1-2.4-7.4-4.6c-6-10,8.8-46.4,41.4-46.4c14.8,0,24.6,2.4,34.3,11.7c18,17.3,18.4,39,1.5,57l-18,18
	c-8.9,8.8-5.7,8.4-5.7,22.3c0,11.9-18,12.8-18,1c0-31.1-0.3-17.2,15.7-36.3L90,73.9c17.1-26.2-26.6-56.5-47.3-26.3
	C37.8,54.8,40.2,70.1,29.2,70.1L29.2,70.1z M7.2,59.1c0,30.8,36.8,30.2,43.2,9.2c1.6-5.2,0.8-8.4,3.8-13.2c6.9-10.8,26-6,26,7
	c0,6.1-15.6,18.7-19.8,23.2L49.9,96.8c-8.6,8.4-6.7,17.1-6.7,30.3c0,19.8,15.5,21.5,18,25c-9.8,0.8-19,12.4-19,23
	c0,33.3,50,35.9,50-1c0-11-9.6-20.3-21-23c2.9-2,14.7-5.3,16.8-18.2c0.9-5.5-1.1-12.8,1.4-16.6c1.7-2.5,6.7-6.6,9.4-8.6
	c4.3-3.3,4.9-5.1,8.2-8.8c7.8-8.8,18.2-22.4,18.2-35.8c0-24.4-15-43.7-34.3-52.7C76.2,3.6,57.7,3.6,42.7,9.6
	c-6.7,2.7-12.2,6.5-17.3,10.7c-2.8,2.4-4.2,4.7-6.5,7.5c-2.5,3.1-3.5,4.8-5.4,8.6C10.1,43,7.2,49.5,7.2,59.1z"/>
</svg>
