<?xml version="1.0" encoding="utf-8"?>
<!-- Generator: Adobe Illustrator 22.0.0, SVG Export Plug-In . SVG Version: 6.00 Build 0)  -->
<svg version="1.1" id="Capa_1" xmlns="http://www.w3.org/2000/svg" xmlns:xlink="http://www.w3.org/1999/xlink" x="0px" y="0px"
	 viewBox="0 0 405.4 413.9" style="enable-background:new 0 0 405.4 413.9;" xml:space="preserve">
<style type="text/css">
	.st0{fill-rule:evenodd;clip-rule:evenodd;fill:#231F20;}
</style>
<g>
	<path class="st0" d="M39.4,240.2c0,9.1,8.9,8.3,12,4c0.9-1.2,2.7-4.6,3.6-6.4l17.4-30.6c0.7-1.2,1.1-1.9,1.9-3.1l2.1-2.9v151
		c-5.8-3.9-19.7-19.8-24.4-26.6c-24-34.9-38.6-66.6-38.6-116.4c0-48.6,15.6-83.9,41.9-119.1c5.6-7.5,7.5-8,10.7-12.3
		c10.3-13.4,37.5-31.6,52.8-39.2c45.4-22.7,100.4-26.2,148.2-7.9c11.7,4.5,23.9,10.2,34,17c2.8,1.9,7.8,5.9,10.4,6.6v160
		c-2.8-2.1-12.5-20.9-14.6-24.4c-2.6-4.4-4.2-7.7-6.9-12.1c-2.3-3.9-4.4-10.4-9.6-10.4c-3,0-7,3.7-7,6c0,4.1,2.4,7.2,4,10
		c9.6,17.6,23.6,40.2,32.6,57.4c2.5,4.8,3.3,6.6,9.4,6.6c4.1,0,8.5-10.7,12.2-16.8c3.8-6.3,6.9-12,10.5-18.5
		c2-3.6,20.3-33.4,20.3-37.7c0-4.6-4.5-7-7-7c-5.7,0-12.2,15.1-16,22l-14,24v-147c13,8.7,35.7,40.3,43.3,55.7
		c17.7,35.7,20.7,57.1,20.7,98.3c0,38-20.3,86.5-45.8,115.2l-11.1,11.9c-4.8,3.8-7.7,7.5-12.1,10.9c-4.4,3.3-8.6,6.4-13.2,9.8
		c-27.4,20.8-68.9,33.1-106.9,33.1c-44.7,0-76.2-14.4-110-37v-163c0.5,0.6,1.1,1.2,1.8,2.2l22.8,40.2c4.8,7.6,15.1,2.4,12.4-5.5
		l-35.4-62.6c-9.3-17.5-15.5-4.2-21.7,7.7C66,191.7,39.4,235.2,39.4,240.2L39.4,240.2z M403.4,212.2c0-56.4-19.9-107.4-59.2-146.7
		C305,26.3,258,5.2,198.4,5.2C149.9,5.2,96.9,28.4,69.2,56c-7.3,7.3-14.5,12.1-23.6,24.4C34,96,24.7,108.7,16.8,127.6
		c-27.1,65-22,134.5,16.6,195.5c16.4,25.9,42,49,68.3,64.7c67.3,40.4,156.3,34.1,218.1-12.3c3.7-2.8,7.5-5.3,10.8-8.2
		c1.8-1.6,2.7-2.9,4.5-4.5c2.3-2,3.2-2.2,5.5-4.5c3.9-3.7,5.6-5.9,9-10c11-13.2,14.6-16,24.5-32.5
		C392.3,286.1,403.4,249.2,403.4,212.2z"/>
	<path class="st0" d="M194.4,98.2c0,21.2,1.5,15.1-8.7,18.3c-19.2,6.1-36.3,25-36.3,44.7c0,17.4,0.8,25.1,12.8,40.2
		c12.4,15.5,31,16.3,46,18c17,1.9,32.1,19.1,32.1,33.9c0,13.5-1.4,22.3-11.7,32.3c-22,21.2-62,9.1-65.2-25.4
		c-1.3-14.2-10.5-9.4-12.5-6.2c-5.1,8.3,3.6,27.4,10.9,36.8c12.4,15.8,27.2,16,32.4,18.6c0,3.9-0.3,9.4,0,13
		c0.2,2.4,0.1,2.9,1.5,4.5c3.4,4,11.5,3.6,11.5-4.5v-13c5.6-0.1,15.3-3.5,19.3-5.7c39.6-21.2,37.7-84.1-13.5-97.2
		c-9.4-2.4-23.6,0.7-35.5-9.5c-19.2-16.3-19.6-41.8-5.1-56.5c24-24.2,62.3-10.6,66.5,19c1.1,7.4,0,13.7,8.3,13.7c5.3,0,6-6.2,6-10
		c0-13.3-8.9-28.9-18.3-36.7c-16.7-14.1-26.4-8.1-27.7-14.3c-0.4-1.7,0-11.5,0-14C200.7,93.7,202.4,92.9,194.4,98.2z"/>
</g>
</svg>
