<?xml version="1.0" encoding="utf-8"?>
<!-- Generator: Adobe Illustrator 22.0.0, SVG Export Plug-In . SVG Version: 6.00 Build 0)  -->
<svg version="1.1" id="Capa_1" xmlns="http://www.w3.org/2000/svg" xmlns:xlink="http://www.w3.org/1999/xlink" x="0px" y="0px"
	 viewBox="0 0 211.3 208" style="enable-background:new 0 0 211.3 208;" xml:space="preserve">
<style type="text/css">
	.st0{fill-rule:evenodd;clip-rule:evenodd;fill:#231F20;}
</style>
<path class="st0" d="M16.1,44l14.8-14.3c18.2-18.2,12.3-18.2,30.5,0L106.1,73c8.3-5.5,56.6-57,60-57c3.3,0,12.6,11.1,15.2,13.8
	l12.9,12.1c0.1,0.2,0.3,0.4,0.5,0.5l0.9,1.1c0.1,0.1,0.3,0.4,0.4,0.6l-21.7,22.3c-7.6,7.6-30.9,27.2-37.3,36.7l29.3,29.7
	c7.6,7.6,25.9,23.4,29.7,29.3c-1.9,2.8-4.2,4.7-6.7,7.3c-3.1,3.1-5,4.2-8,7c-21.5,19.9-6.5,22.2-52-21.5L106.1,133
	c-8.3,5.5-56.6,57-60,57c-3.1,0-17.8-16.9-26.2-23.8l-3.8-4.2c3.1-4.6,23.6-24.2,29.7-29.3c4.7-4,26.5-25.6,29.3-29.7
	c-6.4-9.6-29.5-28.9-36.8-36.2C33.1,61.5,18.7,47.9,16.1,44L16.1,44z M3.1,44c0,9.1,5.1,11.6,11.2,17.8l27.5,27.5
	c3.7,3.6,10.6,8.3,14.3,13.7l-27.8,27.3c-5.7,5.7-25.2,22.4-25.2,29.7c0,8.4,1.9,10.5,7.2,15.8c3.7,3.7,6.8,7.2,10.8,10.2
	c15.2,11.6,19.3,30.2,42.3,7.2l21-21c3.3-2.7,4.4-3.5,7.5-6.5c4-4.1,9.9-10.9,14.2-13.8c4.4,2.9,9.7,9.2,13.7,13.3
	c5,5,9.4,8.4,14.5,13.5c16.6,16.6,28.2,35.5,45,18.5c8.5-8.6,29.7-23.6,29.7-35.3c0-9.7-15.6-22.1-24.7-31.3
	c-7.4-7.4-24.5-22.1-28.3-27.8l41.3-40.8c9.1-9.1,19.2-17.5,4.5-32c-3.7-3.7-6.8-7.2-10.8-10.2c-15.2-11.6-19.3-30.2-42.3-7.2
	l-21,21c-7.8,6.5-17.6,17.6-21.7,20.3c-4.4-2.9-9.7-9.2-13.7-13.3c-5-5-9.4-8.4-14.5-13.5C72.1,21.5,55.7,2,47.1,2
	C34.5,2,29.4,13.6,21.6,19.6C15.1,24.6,3.1,35.1,3.1,44z"/>
</svg>
