<?xml version="1.0" encoding="utf-8"?>
<!-- Generator: Adobe Illustrator 21.0.0, SVG Export Plug-In . SVG Version: 6.00 Build 0)  -->
<svg version="1.1" id="Capa_1" xmlns="http://www.w3.org/2000/svg" xmlns:xlink="http://www.w3.org/1999/xlink" x="0px" y="0px"
	 viewBox="0 0 150 93" style="enable-background:new 0 0 150 93;" xml:space="preserve">
<style type="text/css">
	.st0{fill:#494742;}
	.st1{fill:#FFFFFF;}
</style>
<g>
	<path class="st0" d="M14.7,23.3c-1.1,0-1.9-0.9-1.9-1.9s0.9-1.9,1.9-1.9c8,0,14.5-6.5,14.5-14.5c0-1.1,0.9-1.9,1.9-1.9
		C32.2,3,33,3.8,33,4.9C33,15,24.8,23.3,14.7,23.3z"/>
	<path class="st0" d="M30.8,71.7c-1.1,0-1.9-0.9-1.9-1.9c0-8-6.5-14.5-14.5-14.5c-1.1,0-1.9-0.9-1.9-1.9c0-1.1,0.9-1.9,1.9-1.9
		c10.1,0,18.4,8.2,18.4,18.4C32.7,70.8,31.8,71.7,30.8,71.7z"/>
	<g>
		<path class="st0" d="M122.1,72.8h-109c-1.1,0-1.9-0.9-1.9-1.9v-67C11.2,2.9,12,2,13.1,2h109c1.1,0,1.9,0.9,1.9,1.9v67
			C124.1,71.9,123.2,72.8,122.1,72.8z M15,69h105.2V5.9H15V69z"/>
		<path class="st0" d="M66.8,56.3c-10.9,0-19.7-8.8-19.7-19.7S56,16.9,66.8,16.9c10.9,0,19.7,8.8,19.7,19.7S77.7,56.3,66.8,56.3z
			 M66.8,20.8c-8.7,0-15.9,7.1-15.9,15.9s7.1,15.9,15.9,15.9c8.7,0,15.8-7.1,15.8-15.9S75.6,20.8,66.8,20.8z"/>
		<g>
			<circle class="st1" cx="120.9" cy="62.6" r="18"/>
			<path class="st0" d="M120.9,82.6c-11,0-20-9-20-20s9-20,20-20s20,9,20,20S131.9,82.6,120.9,82.6z M120.9,46.5
				c-8.9,0-16.1,7.2-16.1,16.1c0,8.9,7.2,16.1,16.1,16.1c8.9,0,16.1-7.2,16.1-16.1C137,53.7,129.8,46.5,120.9,46.5z"/>
		</g>
		<g>
			<circle class="st1" cx="102.6" cy="72" r="18"/>
			<path class="st0" d="M102.6,92c-11,0-20-9-20-20s9-20,20-20s20,9,20,20S113.6,92,102.6,92z M102.6,55.9
				c-8.9,0-16.1,7.2-16.1,16.1c0,8.9,7.2,16.1,16.1,16.1s16.1-7.2,16.1-16.1C118.7,63.2,111.5,55.9,102.6,55.9z"/>
		</g>
		<path class="st0" d="M14.7,23.3c-1.1,0-1.9-0.9-1.9-1.9s0.9-1.9,1.9-1.9c8,0,14.5-6.5,14.5-14.5c0-1.1,0.9-1.9,1.9-1.9
			C32.2,3,33,3.8,33,4.9C33,15,24.8,23.3,14.7,23.3z"/>
		<path class="st0" d="M119.3,23.3C109.2,23.3,101,15,101,4.9c0-1.1,0.9-1.9,1.9-1.9s1.9,0.9,1.9,1.9c0,8,6.5,14.5,14.5,14.5
			c1.1,0,1.9,0.9,1.9,1.9S120.4,23.3,119.3,23.3z"/>
		<path class="st0" d="M30.8,71.7c-1.1,0-1.9-0.9-1.9-1.9c0-8-6.5-14.5-14.5-14.5c-1.1,0-1.9-0.9-1.9-1.9c0-1.1,0.9-1.9,1.9-1.9
			c10.1,0,18.4,8.2,18.4,18.4C32.7,70.8,31.8,71.7,30.8,71.7z"/>
	</g>
</g>
</svg>
