<?xml version="1.0" encoding="utf-8"?>
<!-- Generator: Adobe Illustrator 21.0.0, SVG Export Plug-In . SVG Version: 6.00 Build 0)  -->
<svg version="1.1" id="Capa_1" xmlns="http://www.w3.org/2000/svg" xmlns:xlink="http://www.w3.org/1999/xlink" x="0px" y="0px"
	 viewBox="0 0 150 162" style="enable-background:new 0 0 150 162;" xml:space="preserve">
<style type="text/css">
	.st0{fill:#494742;}
</style>
<path class="st0" d="M73.8,159.5c-5.2,0-9.7-1.7-13.6-5.1c-4.1-3.5-6.1-8.4-6.1-14.5c0-5.5,1.9-10.1,5.8-13.9
	c2.5-2.5,5.4-4.1,8.7-4.9c-2.9-0.7-5.5-2.1-7.7-4.2c-3.3-3.2-5-7.7-5-13.4c0-6.1,1-11.5,2.9-16.1c1.9-4.5,4.5-8.5,7.6-11.9
	c2.9-3.1,6.8-6.8,11.6-11.1c4.1-3.6,7-6.2,8.7-8c1.5-1.5,2.8-3.2,3.8-5.1c0.9-1.5,1.3-3.2,1.3-5c0-3.8-1.3-6.8-4.2-9.5
	c-2.9-2.7-6.7-4-11.5-4c-5.7,0-9.7,1.3-12.1,3.8c-2.9,3-5.4,7.8-7.5,14.1c-3.8,12.5-12.4,14.4-17.2,14.4c-5,0-9.3-1.8-12.7-5.3
	c-3.4-3.5-5.1-7.5-5.1-11.8c0-7.1,2.2-14.2,6.7-21.3c4.4-7,10.8-12.9,19.1-17.4c8.3-4.5,18-6.8,28.9-6.8c10.1,0,19.2,1.9,27,5.7
	c8,3.8,14.3,9.2,18.7,15.9c4.4,6.8,6.7,14.2,6.7,22.2c0,6.3-1.3,12-3.9,16.8c-2.5,4.6-5.4,8.6-8.9,11.9c-3.1,3-8.7,8.2-16.7,15.4
	c-2,1.8-3.7,3.5-4.9,4.9c-1.3,1.5-2,2.6-2.3,3.2c-0.5,1-0.9,1.9-1.1,2.9c-0.3,1.2-0.9,3.4-1.5,6.4c-1.3,7-5.2,11.6-11.1,13.3
	c3.6,0.7,6.8,2.5,9.6,5.2c3.7,3.7,5.6,8.4,5.6,13.8c0,6-2,10.8-6,14.4C83.4,157.8,78.9,159.5,73.8,159.5z M73.8,130.5
	c-2.9,0-5.1,0.9-7,2.8c-1.9,1.8-2.8,4-2.8,6.7c0,4.1,1.5,6,2.7,7c2,1.8,4.3,2.6,7.1,2.6c2.6,0,4.8-0.9,6.8-2.6c1.2-1,2.7-2.9,2.7-7
	c0-2.8-0.9-4.9-2.7-6.8C78.8,131.3,76.6,130.5,73.8,130.5z M76.2,23c7.3,0,13.5,2.2,18.3,6.7c4.9,4.5,7.4,10.2,7.4,16.8
	c0,3.5-0.8,6.8-2.5,9.8c-1.5,2.7-3.3,5.1-5.5,7.3c-1.9,1.9-4.9,4.7-9.2,8.4c-4.6,4-8.2,7.5-10.9,10.4c-2.4,2.6-4.3,5.6-5.8,9.1
	c-1.4,3.3-2.1,7.4-2.1,12.2c0,2.9,0.6,5,1.9,6.2c1.4,1.3,3,1.9,5.1,1.9c3.4,0,5.8-1,6.7-6c0.8-3.5,1.3-5.8,1.7-7.1
	c0.4-1.6,1.1-3.1,1.9-4.7c0.8-1.6,2-3.3,3.6-5.2c1.4-1.7,3.4-3.6,5.7-5.7c7.9-7.1,13.4-12.1,16.4-15.1c2.7-2.6,5.1-5.9,7.1-9.5
	c1.8-3.4,2.8-7.5,2.8-12.1c0-6.1-1.7-11.5-5.1-16.7c-3.4-5.2-8.3-9.3-14.7-12.4c-6.5-3.1-14.1-4.7-22.7-4.7
	c-9.2,0-17.3,1.9-24.1,5.6c-6.8,3.7-12,8.4-15.5,14c-3.4,5.5-5.2,10.9-5.2,16.1c0,1.6,0.8,3.2,2.3,4.8c1.6,1.6,3.3,2.3,5.6,2.3
	c2.7,0,5.8-0.9,7.8-7.4c2.6-7.9,5.8-13.7,9.7-17.8C61.1,25.3,67.6,23,76.2,23z"/>
</svg>
