<?xml version="1.0" encoding="utf-8"?>
<!-- Generator: Adobe Illustrator 21.0.0, SVG Export Plug-In . SVG Version: 6.00 Build 0)  -->
<svg version="1.1" id="Capa_1" xmlns="http://www.w3.org/2000/svg" xmlns:xlink="http://www.w3.org/1999/xlink" x="0px" y="0px"
	 viewBox="0 0 150 150" style="enable-background:new 0 0 150 150;" xml:space="preserve">
<style type="text/css">
	.st0{fill:#FFFFFF;}
</style>
<path class="st0" d="M93.2,19.7V5.1c0-3.3-4.2-5.3-6.9-3.3L59.1,21.2c-2.3,1.6-2.4,5-0.1,6.6l27.4,19.4c2.7,1.9,6.8,0,6.8-3.3v-9
	c21.8,7.2,33.4,26.1,33.4,48.2c0,28.3-23.3,51.4-51.6,51.4s-51.5-23-51.5-51.4c0-4-3.3-7.3-7.3-7.3s-7.3,3.2-7.3,7.3
	c0,36.3,29.5,65.9,65.9,65.9s66.3-29.6,66.3-65.9C141.1,52.9,122.2,27.4,93.2,19.7z"/>
</svg>
