<?xml version="1.0" encoding="utf-8"?>
<!-- Generator: Adobe Illustrator 21.0.0, SVG Export Plug-In . SVG Version: 6.00 Build 0)  -->
<svg version="1.1" id="Capa_1" xmlns="http://www.w3.org/2000/svg" xmlns:xlink="http://www.w3.org/1999/xlink" x="0px" y="0px"
	 viewBox="0 0 150 50" style="enable-background:new 0 0 150 50;" xml:space="preserve">
<style type="text/css">
	.st0{fill:#494742;}
</style>
<g>
	<path class="st0" d="M50,33.9H19.6c-1.1,0-1.9-0.9-1.9-1.9V3.6c0-1.1,0.9-1.9,1.9-1.9H50c1.1,0,1.9,0.9,1.9,1.9V32
		C51.9,33.1,51,33.9,50,33.9z M21.5,30H48V5.6H21.5V30z"/>
	<path class="st0" d="M91.8,33.9H61.4c-1.1,0-1.9-0.9-1.9-1.9V14.2c0-1.1,0.9-1.9,1.9-1.9h30.4c1.1,0,1.9,0.9,1.9,1.9V32
		C93.7,33.1,92.8,33.9,91.8,33.9z M63.4,30h26.5V16.1H63.4V30z"/>
	<path class="st0" d="M134.6,33.9h-30.4c-1.1,0-1.9-0.9-1.9-1.9v-29c0-1.1,0.9-1.9,1.9-1.9h30.4c1.1,0,1.9,0.9,1.9,1.9v29
		C136.5,33.1,135.6,33.9,134.6,33.9z M106.1,30h26.5V4.9h-26.5V30z"/>
	<path class="st0" d="M146.6,49.1H2.8c-1.1,0-1.9-0.9-1.9-1.9c0-1.1,0.9-1.9,1.9-1.9h143.7c1.1,0,1.9,0.9,1.9,1.9
		C148.5,48.2,147.6,49.1,146.6,49.1z"/>
</g>
</svg>
