<?xml version="1.0" encoding="utf-8"?>
<!-- Generator: Adobe Illustrator 21.0.0, SVG Export Plug-In . SVG Version: 6.00 Build 0)  -->
<svg version="1.1" id="Capa_1" xmlns="http://www.w3.org/2000/svg" xmlns:xlink="http://www.w3.org/1999/xlink" x="0px" y="0px"
	 viewBox="0 0 150 93" style="enable-background:new 0 0 150 93;" xml:space="preserve">
<style type="text/css">
	.st0{fill:#003E6C;}
	.st1{fill:none;}
</style>
<g>
	<path class="st0" d="M120.5,64.5H26.2c-1,0-1.8-0.8-1.8-1.8V3.8c0-1,0.8-1.8,1.8-1.8h94.3c1,0,1.8,0.8,1.8,1.8v58.9
		C122.3,63.7,121.5,64.5,120.5,64.5z M28,60.9h90.6V5.6H28V60.9z"/>
	<path class="st0" d="M84.4,77.4H63.6c-1,0-1.8-0.8-1.8-1.8V63.9c0-1,0.8-1.8,1.8-1.8h20.9c1,0,1.8,0.8,1.8,1.8v11.6
		C86.3,76.6,85.4,77.4,84.4,77.4z M65.4,73.8h17.2v-8H65.4V73.8z"/>
	<path class="st0" d="M122.3,90H25.7c-1,0-1.8-0.8-1.8-1.8V76.5c0-1,0.8-1.8,1.8-1.8h96.6c1,0,1.8,0.8,1.8,1.8v11.6
		C124.1,89.2,123.3,90,122.3,90z M27.5,86.4h93v-8h-93V86.4z"/>
	<g>
		<path class="st0" d="M50,39.8c-0.7,0-1.3-0.4-1.6-1c-1.1-2.1-1.7-4.6-1.7-7c0-8.5,6.9-15.4,15.4-15.4h23c1,0,1.8,0.8,1.8,1.8
			s-0.8,1.8-1.8,1.8h-23c-6.5,0-11.8,5.3-11.8,11.8c0,1.9,0.4,3.7,1.3,5.3c0.5,0.9,0.1,2-0.8,2.5C50.5,39.8,50.3,39.8,50,39.8z"/>
		<path class="st0" d="M85.1,47.2h-23c-1,0-1.8-0.8-1.8-1.8c0-1,0.8-1.8,1.8-1.8h23c6.5,0,11.8-5.3,11.8-11.8c0-2.2-0.6-4.3-1.7-6.1
			c-0.5-0.9-0.2-2,0.6-2.5c0.9-0.5,2-0.2,2.5,0.6c1.5,2.4,2.2,5.2,2.2,8C100.5,40.3,93.6,47.2,85.1,47.2z"/>
		<path class="st0" d="M81.2,25.3c-0.5,0-0.9-0.2-1.3-0.5c-0.7-0.7-0.7-1.9,0-2.6l4.1-4.2l-3.3-3.3c-0.7-0.7-0.7-1.9,0-2.6
			c0.7-0.7,1.9-0.7,2.6,0l4.6,4.6c0.7,0.7,0.7,1.9,0,2.6l-5.4,5.5C82.1,25.2,81.7,25.3,81.2,25.3z"/>
		<path class="st0" d="M64,51.7c-0.5,0-0.9-0.2-1.3-0.5l-4.6-4.6c-0.7-0.7-0.7-1.9,0-2.6l5.4-5.5c0.7-0.7,1.9-0.7,2.6,0
			c0.7,0.7,0.7,1.9,0,2.6l-4.1,4.2l3.3,3.3c0.7,0.7,0.7,1.9,0,2.6C64.9,51.5,64.4,51.7,64,51.7z"/>
	</g>
</g>
</svg>
