<?xml version="1.0" encoding="utf-8"?>
<!-- Generator: Adobe Illustrator 21.0.0, SVG Export Plug-In . SVG Version: 6.00 Build 0)  -->
<svg version="1.1" id="Capa_1" xmlns="http://www.w3.org/2000/svg" xmlns:xlink="http://www.w3.org/1999/xlink" x="0px" y="0px"
	 viewBox="0 0 1921 466" style="enable-background:new 0 0 1921 466;" xml:space="preserve">
<style type="text/css">
	.st0{fill:#003E6C;}
	.st1{fill:#006FB9;}
	.st2{clip-path:url(#SVGID_2_);fill:#FFFFFF;}
	.st3{fill:#FFFFFF;}
	.st4{opacity:0.38;}
	.st5{fill:url(#SVGID_3_);}
	.st6{fill:url(#SVGID_4_);}
	.st7{fill:url(#SVGID_5_);}
	.st8{fill:url(#SVGID_6_);}
	.st9{fill:url(#SVGID_7_);}
	.st10{fill:url(#SVGID_8_);}
	.st11{fill:url(#SVGID_9_);}
	.st12{opacity:0.38;fill:url(#SVGID_10_);}
	.st13{fill:#850024;}
	.st14{opacity:8.000000e-02;fill:#1A1A1A;}
</style>
<rect x="-16.5" y="-4.4" class="st0" width="1955.1" height="477.4"/>
<rect x="1171.5" y="176.5" class="st1" width="749.5" height="126.4"/>
<g>
	<defs>
		<rect id="SVGID_1_" x="3" y="2.5" width="1916.1" height="464.7"/>
	</defs>
	<clipPath id="SVGID_2_">
		<use xlink:href="#SVGID_1_"  style="overflow:visible;"/>
	</clipPath>
</g>
<g>
	<g>
		<path class="st3" d="M1209.4,224.6h-7l-1.2,3.8h-5.4l7.7-20.4h4.8l7.8,20.4h-5.5L1209.4,224.6z M1203.7,220.8h4.5l-2.3-7.1
			L1203.7,220.8z"/>
		<path class="st3" d="M1241.2,228.4h-5.1v-8.5h-7.5v8.5h-5.1V208h5.1v8.1h7.5V208h5.1V228.4z"/>
		<path class="st3" d="M1268.2,218.6c0,2-0.4,3.7-1.1,5.3c-0.8,1.5-1.8,2.7-3.3,3.5c-1.4,0.8-3,1.2-4.8,1.2s-3.4-0.4-4.8-1.2
			c-1.4-0.8-2.5-1.9-3.3-3.4c-0.8-1.5-1.2-3.2-1.2-5.1v-1.1c0-2,0.4-3.8,1.1-5.3c0.8-1.5,1.8-2.7,3.3-3.5c1.4-0.8,3-1.2,4.8-1.2
			c1.8,0,3.4,0.4,4.8,1.2s2.5,2,3.3,3.5c0.8,1.5,1.2,3.3,1.2,5.2V218.6z M1263.1,217.8c0-2-0.4-3.6-1.1-4.6c-0.7-1.1-1.7-1.6-3-1.6
			c-2.6,0-3.9,1.8-4,5.5l0,1.5c0,2,0.3,3.5,1,4.6c0.7,1.1,1.7,1.6,3.1,1.6c1.3,0,2.3-0.5,3-1.6c0.7-1.1,1-2.6,1.1-4.6V217.8z"/>
		<path class="st3" d="M1284.6,221.2h-2.8v7.2h-5.1V208h8.3c2.5,0,4.5,0.5,5.9,1.6c1.4,1.1,2.1,2.6,2.1,4.5c0,1.4-0.3,2.6-0.9,3.5
			c-0.6,0.9-1.5,1.7-2.8,2.3l4.4,8.2v0.2h-5.4L1284.6,221.2z M1281.9,217.4h3.2c1,0,1.7-0.2,2.2-0.7c0.5-0.5,0.7-1.2,0.7-2.1
			s-0.2-1.6-0.7-2.1c-0.5-0.5-1.2-0.8-2.2-0.8h-3.2V217.4z"/>
		<path class="st3" d="M1314.1,224.6h-7l-1.2,3.8h-5.4l7.7-20.4h4.8l7.8,20.4h-5.5L1314.1,224.6z M1308.3,220.8h4.5l-2.3-7.1
			L1308.3,220.8z"/>
		<path class="st3" d="M1346.7,221.5v6.9h-5.1V208h8.4c1.6,0,3,0.3,4.3,0.9c1.2,0.6,2.2,1.4,2.9,2.5c0.7,1.1,1,2.3,1,3.6
			c0,2-0.7,3.6-2.2,4.8c-1.5,1.2-3.5,1.8-6.1,1.8H1346.7z M1346.7,217.7h3.3c1,0,1.7-0.2,2.3-0.7c0.5-0.5,0.8-1.1,0.8-2
			c0-1-0.3-1.7-0.8-2.3c-0.5-0.6-1.3-0.9-2.2-0.9h-3.4V217.7z"/>
		<path class="st3" d="M1384.7,218.6c0,2-0.4,3.7-1.1,5.3c-0.8,1.5-1.8,2.7-3.3,3.5c-1.4,0.8-3,1.2-4.8,1.2c-1.8,0-3.4-0.4-4.8-1.2
			c-1.4-0.8-2.5-1.9-3.3-3.4s-1.2-3.2-1.2-5.1v-1.1c0-2,0.4-3.8,1.1-5.3c0.8-1.5,1.8-2.7,3.3-3.5c1.4-0.8,3-1.2,4.8-1.2
			c1.8,0,3.4,0.4,4.8,1.2c1.4,0.8,2.5,2,3.3,3.5c0.8,1.5,1.2,3.3,1.2,5.2V218.6z M1379.5,217.8c0-2-0.4-3.6-1.1-4.6
			c-0.7-1.1-1.7-1.6-3-1.6c-2.6,0-3.9,1.8-4,5.5l0,1.5c0,2,0.3,3.5,1,4.6c0.7,1.1,1.7,1.6,3.1,1.6c1.3,0,2.3-0.5,3-1.6
			c0.7-1.1,1-2.6,1.1-4.6V217.8z"/>
		<path class="st3" d="M1393.3,228.4V208h6.8c1.9,0,3.5,0.4,5,1.2c1.5,0.8,2.7,2,3.5,3.5c0.8,1.5,1.3,3.2,1.3,5v0.9
			c0,1.9-0.4,3.5-1.2,5c-0.8,1.5-2,2.6-3.4,3.5c-1.5,0.8-3.1,1.3-5,1.3H1393.3z M1398.4,211.8v12.8h1.8c1.5,0,2.6-0.5,3.4-1.5
			c0.8-1,1.2-2.5,1.2-4.5v-0.9c0-2-0.4-3.5-1.2-4.5c-0.8-1-1.9-1.5-3.4-1.5H1398.4z"/>
		<path class="st3" d="M1426.2,221.2h-2.8v7.2h-5.1V208h8.3c2.5,0,4.5,0.5,5.9,1.6c1.4,1.1,2.1,2.6,2.1,4.5c0,1.4-0.3,2.6-0.9,3.5
			s-1.5,1.7-2.8,2.3l4.4,8.2v0.2h-5.4L1426.2,221.2z M1423.5,217.4h3.2c1,0,1.7-0.2,2.2-0.7c0.5-0.5,0.7-1.2,0.7-2.1
			s-0.2-1.6-0.7-2.1c-0.5-0.5-1.2-0.8-2.2-0.8h-3.2V217.4z"/>
		<path class="st3" d="M1455.7,224.6h-7l-1.2,3.8h-5.4l7.7-20.4h4.8l7.8,20.4h-5.5L1455.7,224.6z M1449.9,220.8h4.5l-2.3-7.1
			L1449.9,220.8z M1452.9,202.5h5.2l-4,4.4l-4,0L1452.9,202.5z"/>
		<path class="st3" d="M1480.7,223c0-0.7-0.3-1.3-0.8-1.7c-0.5-0.4-1.5-0.8-2.8-1.2c-1.3-0.4-2.4-0.8-3.2-1.2
			c-2.7-1.3-4.1-3.1-4.1-5.3c0-1.1,0.3-2.1,1-3c0.7-0.9,1.6-1.5,2.9-2c1.2-0.5,2.6-0.7,4.2-0.7c1.5,0,2.9,0.3,4.1,0.8
			c1.2,0.5,2.1,1.3,2.8,2.2s1,2.1,1,3.3h-5.1c0-0.8-0.3-1.5-0.8-1.9c-0.5-0.5-1.2-0.7-2.1-0.7c-0.9,0-1.6,0.2-2.2,0.6
			c-0.5,0.4-0.8,0.9-0.8,1.5c0,0.5,0.3,1,0.9,1.4c0.6,0.4,1.6,0.9,3.1,1.3c1.5,0.5,2.7,0.9,3.6,1.5c2.3,1.3,3.4,3,3.4,5.3
			c0,1.8-0.7,3.2-2.1,4.2c-1.4,1-3.3,1.5-5.7,1.5c-1.7,0-3.3-0.3-4.6-0.9c-1.4-0.6-2.4-1.4-3.1-2.4c-0.7-1-1.1-2.2-1.1-3.6h5.1
			c0,1.1,0.3,1.9,0.9,2.4c0.6,0.5,1.5,0.8,2.8,0.8c0.8,0,1.5-0.2,2-0.5C1480.5,224.1,1480.7,223.6,1480.7,223z"/>
		<path class="st3" d="M1524.8,221.5c-0.1,1.4-0.5,2.7-1.2,3.8c-0.7,1.1-1.7,1.9-3.1,2.5c-1.3,0.6-2.8,0.9-4.5,0.9
			c-2.8,0-5-0.9-6.6-2.6c-1.6-1.7-2.4-4.2-2.4-7.4v-1c0-2,0.4-3.7,1.1-5.2s1.8-2.7,3.1-3.5c1.4-0.8,2.9-1.2,4.7-1.2
			c2.6,0,4.6,0.7,6.2,2c1.6,1.3,2.4,3.1,2.7,5.4h-5.1c0-1.2-0.4-2.1-1-2.7c-0.6-0.5-1.5-0.8-2.8-0.8c-1.3,0-2.2,0.5-2.8,1.4
			c-0.6,0.9-0.9,2.4-0.9,4.4v1.4c0,2.2,0.3,3.7,0.8,4.7c0.6,0.9,1.5,1.4,2.9,1.4c1.2,0,2.1-0.3,2.7-0.8c0.6-0.5,0.9-1.4,1-2.5
			H1524.8z"/>
		<path class="st3" d="M1551,218.6c0,2-0.4,3.7-1.1,5.3c-0.8,1.5-1.8,2.7-3.3,3.5c-1.4,0.8-3,1.2-4.8,1.2s-3.4-0.4-4.8-1.2
			c-1.4-0.8-2.5-1.9-3.3-3.4s-1.2-3.2-1.2-5.1v-1.1c0-2,0.4-3.8,1.1-5.3c0.8-1.5,1.8-2.7,3.3-3.5c1.4-0.8,3-1.2,4.8-1.2
			c1.8,0,3.4,0.4,4.8,1.2s2.5,2,3.3,3.5c0.8,1.5,1.2,3.3,1.2,5.2V218.6z M1545.8,217.8c0-2-0.4-3.6-1.1-4.6c-0.7-1.1-1.7-1.6-3-1.6
			c-2.6,0-3.9,1.8-4,5.5l0,1.5c0,2,0.3,3.5,1,4.6c0.7,1.1,1.7,1.6,3.1,1.6c1.3,0,2.3-0.5,3-1.6c0.7-1.1,1-2.6,1.1-4.6V217.8z"/>
		<path class="st3" d="M1577.2,228.4h-5.1l-7.5-12.7v12.7h-5.1V208h5.1l7.5,12.7V208h5.1V228.4z"/>
		<path class="st3" d="M1597.2,223c0-0.7-0.3-1.3-0.8-1.7c-0.5-0.4-1.5-0.8-2.8-1.2c-1.3-0.4-2.4-0.8-3.2-1.2
			c-2.7-1.3-4.1-3.1-4.1-5.3c0-1.1,0.3-2.1,1-3c0.7-0.9,1.6-1.5,2.9-2c1.2-0.5,2.6-0.7,4.2-0.7c1.5,0,2.9,0.3,4.1,0.8
			c1.2,0.5,2.1,1.3,2.8,2.2s1,2.1,1,3.3h-5.1c0-0.8-0.3-1.5-0.8-1.9c-0.5-0.5-1.2-0.7-2.1-0.7c-0.9,0-1.6,0.2-2.2,0.6
			c-0.5,0.4-0.8,0.9-0.8,1.5c0,0.5,0.3,1,0.9,1.4c0.6,0.4,1.6,0.9,3.1,1.3c1.5,0.5,2.7,0.9,3.6,1.5c2.3,1.3,3.4,3,3.4,5.3
			c0,1.8-0.7,3.2-2.1,4.2c-1.4,1-3.3,1.5-5.7,1.5c-1.7,0-3.3-0.3-4.6-0.9c-1.4-0.6-2.4-1.4-3.1-2.4c-0.7-1-1.1-2.2-1.1-3.6h5.1
			c0,1.1,0.3,1.9,0.9,2.4c0.6,0.5,1.5,0.8,2.8,0.8c0.8,0,1.5-0.2,2-0.5C1597,224.1,1597.2,223.6,1597.2,223z"/>
		<path class="st3" d="M1627.4,208v13.3c0,1.5-0.3,2.8-1,3.9c-0.7,1.1-1.6,1.9-2.9,2.5c-1.2,0.6-2.7,0.9-4.4,0.9
			c-2.6,0-4.6-0.6-6.1-1.9c-1.5-1.3-2.2-3.1-2.3-5.3V208h5.1v13.5c0.1,2.2,1.1,3.3,3.2,3.3c1.1,0,1.9-0.3,2.4-0.8s0.8-1.5,0.8-2.7
			V208H1627.4z"/>
		<path class="st3" d="M1641.6,224.6h8.9v3.8h-13.9V208h5.1V224.6z"/>
		<path class="st3" d="M1672.1,211.8h-6.3v16.6h-5.1v-16.6h-6.2V208h17.6V211.8z"/>
		<path class="st3" d="M1690.4,224.6h-7l-1.2,3.8h-5.4l7.7-20.4h4.8l7.8,20.4h-5.5L1690.4,224.6z M1684.7,220.8h4.5l-2.3-7.1
			L1684.7,220.8z"/>
		<path class="st3" d="M1712.5,221.2h-2.8v7.2h-5.1V208h8.3c2.5,0,4.5,0.5,5.9,1.6c1.4,1.1,2.1,2.6,2.1,4.5c0,1.4-0.3,2.6-0.9,3.5
			s-1.5,1.7-2.8,2.3l4.4,8.2v0.2h-5.4L1712.5,221.2z M1709.7,217.4h3.2c1,0,1.7-0.2,2.2-0.7c0.5-0.5,0.7-1.2,0.7-2.1
			s-0.2-1.6-0.7-2.1c-0.5-0.5-1.2-0.8-2.2-0.8h-3.2V217.4z"/>
	</g>
</g>
<g>
	<g>
		<path class="st3" d="M1202.7,247.3h-7.2v5.7h8.3v1.7h-10.5v-16h10.4v1.7h-8.2v5.1h7.2V247.3z"/>
		<path class="st3" d="M1209.1,254.7h-2.1v-16.9h2.1V254.7z"/>
		<path class="st3" d="M1224.4,253.2c0.7,0,1.4-0.2,2-0.7c0.6-0.4,0.9-1,0.9-1.6h2c0,0.7-0.3,1.3-0.7,1.9c-0.4,0.6-1,1.1-1.8,1.5
			c-0.7,0.4-1.5,0.5-2.4,0.5c-1.7,0-3-0.5-4-1.6c-1-1.1-1.5-2.6-1.5-4.4v-0.3c0-1.2,0.2-2.2,0.7-3.1c0.4-0.9,1.1-1.6,1.9-2.1
			c0.8-0.5,1.8-0.7,2.9-0.7c1.4,0,2.5,0.4,3.4,1.2c0.9,0.8,1.4,1.8,1.5,3.1h-2c-0.1-0.8-0.4-1.4-0.9-1.9c-0.5-0.5-1.2-0.7-2-0.7
			c-1.1,0-1.9,0.4-2.5,1.1c-0.6,0.7-0.9,1.8-0.9,3.2v0.4c0,1.4,0.3,2.4,0.9,3.2C1222.4,252.9,1223.3,253.2,1224.4,253.2z"/>
		<path class="st3" d="M1231.6,248.6c0-1.2,0.2-2.2,0.7-3.1c0.5-0.9,1.1-1.6,2-2.2s1.8-0.8,2.9-0.8c1.7,0,3,0.6,4.1,1.7
			c1,1.1,1.6,2.6,1.6,4.5v0.1c0,1.2-0.2,2.2-0.7,3.1c-0.5,0.9-1.1,1.6-2,2.1s-1.8,0.8-2.9,0.8c-1.7,0-3-0.6-4.1-1.7
			c-1-1.1-1.6-2.6-1.6-4.4V248.6z M1233.7,248.9c0,1.3,0.3,2.4,0.9,3.2c0.6,0.8,1.5,1.2,2.5,1.2c1.1,0,1.9-0.4,2.5-1.2
			c0.6-0.8,0.9-1.9,0.9-3.4c0-1.3-0.3-2.4-1-3.2c-0.6-0.8-1.5-1.2-2.6-1.2c-1,0-1.9,0.4-2.5,1.2
			C1234.1,246.2,1233.7,247.4,1233.7,248.9z"/>
		<path class="st3" d="M1248,242.8l0.1,1.3c0.9-1,2.1-1.5,3.6-1.5c1.7,0,2.9,0.6,3.5,1.9c0.4-0.6,0.9-1,1.6-1.4
			c0.7-0.4,1.4-0.5,2.3-0.5c2.7,0,4.1,1.4,4.1,4.1v8h-2.1v-7.8c0-0.8-0.2-1.5-0.6-1.9c-0.4-0.4-1.1-0.6-2-0.6
			c-0.8,0-1.4,0.2-1.9,0.7c-0.5,0.5-0.8,1.1-0.9,1.8v7.9h-2.1v-7.8c0-1.7-0.9-2.6-2.6-2.6c-1.4,0-2.3,0.6-2.8,1.7v8.7h-2.1v-11.9
			H1248z"/>
		<path class="st3" d="M1277.4,248.9c0,1.8-0.4,3.3-1.3,4.4c-0.9,1.1-2,1.7-3.5,1.7c-1.5,0-2.7-0.5-3.5-1.4v5.7h-2.1v-16.4h1.9
			l0.1,1.3c0.9-1,2-1.5,3.6-1.5c1.5,0,2.6,0.5,3.5,1.6c0.9,1.1,1.3,2.6,1.3,4.5V248.9z M1275.3,248.6c0-1.3-0.3-2.4-0.9-3.2
			c-0.6-0.8-1.4-1.2-2.4-1.2c-1.3,0-2.2,0.5-2.9,1.6v5.7c0.6,1.1,1.6,1.6,2.9,1.6c1,0,1.8-0.4,2.4-1.2
			C1275,251.3,1275.3,250.1,1275.3,248.6z"/>
		<path class="st3" d="M1280.1,248.6c0-1.2,0.2-2.2,0.7-3.1c0.5-0.9,1.1-1.6,2-2.2c0.8-0.5,1.8-0.8,2.9-0.8c1.7,0,3,0.6,4.1,1.7
			c1,1.1,1.6,2.6,1.6,4.5v0.1c0,1.2-0.2,2.2-0.7,3.1c-0.5,0.9-1.1,1.6-2,2.1s-1.8,0.8-2.9,0.8c-1.7,0-3-0.6-4-1.7
			c-1-1.1-1.6-2.6-1.6-4.4V248.6z M1282.2,248.9c0,1.3,0.3,2.4,0.9,3.2c0.6,0.8,1.5,1.2,2.5,1.2c1.1,0,1.9-0.4,2.5-1.2
			c0.6-0.8,0.9-1.9,0.9-3.4c0-1.3-0.3-2.4-1-3.2c-0.6-0.8-1.5-1.2-2.5-1.2c-1,0-1.9,0.4-2.5,1.2
			C1282.5,246.2,1282.2,247.4,1282.2,248.9z"/>
		<path class="st3" d="M1300.4,244.6c-0.3-0.1-0.7-0.1-1-0.1c-1.4,0-2.3,0.6-2.8,1.7v8.4h-2.1v-11.9h2l0,1.4
			c0.7-1.1,1.7-1.6,2.9-1.6c0.4,0,0.7,0.1,0.9,0.2V244.6z"/>
		<path class="st3" d="M1306.4,239.9v2.9h2.3v1.6h-2.3v7.4c0,0.5,0.1,0.8,0.3,1.1c0.2,0.2,0.6,0.4,1,0.4c0.2,0,0.6,0,1-0.1v1.6
			c-0.6,0.1-1.1,0.2-1.6,0.2c-0.9,0-1.6-0.3-2.1-0.8c-0.5-0.5-0.7-1.3-0.7-2.3v-7.4h-2.2v-1.6h2.2v-2.9H1306.4z"/>
		<path class="st3" d="M1319.3,254.7c-0.1-0.2-0.2-0.7-0.3-1.3c-1,1-2.1,1.5-3.5,1.5c-1.2,0-2.2-0.3-3-1c-0.8-0.7-1.2-1.5-1.2-2.5
			c0-1.2,0.5-2.2,1.5-2.9c1-0.7,2.3-1,4.1-1h2v-0.9c0-0.7-0.2-1.3-0.7-1.7c-0.4-0.4-1.1-0.6-1.9-0.6c-0.8,0-1.4,0.2-1.9,0.5
			c-0.5,0.4-0.8,0.8-0.8,1.3h-2.1c0-0.6,0.2-1.2,0.7-1.7c0.4-0.6,1-1,1.8-1.3c0.7-0.3,1.6-0.5,2.5-0.5c1.4,0,2.5,0.3,3.3,1
			c0.8,0.7,1.2,1.6,1.2,2.8v5.5c0,1.1,0.1,2,0.4,2.6v0.2H1319.3z M1315.8,253.1c0.7,0,1.3-0.2,1.9-0.5c0.6-0.3,1-0.8,1.3-1.3v-2.4
			h-1.6c-2.6,0-3.9,0.7-3.9,2.2c0,0.6,0.2,1.1,0.7,1.5C1314.5,252.9,1315.1,253.1,1315.8,253.1z"/>
		<path class="st3" d="M1326.9,242.8l0.1,1.3c0.9-1,2.1-1.5,3.6-1.5c1.7,0,2.9,0.6,3.5,1.9c0.4-0.6,0.9-1,1.6-1.4
			c0.7-0.4,1.4-0.5,2.3-0.5c2.7,0,4.1,1.4,4.1,4.1v8h-2.1v-7.8c0-0.8-0.2-1.5-0.6-1.9c-0.4-0.4-1.1-0.6-2-0.6
			c-0.8,0-1.4,0.2-1.9,0.7c-0.5,0.5-0.8,1.1-0.9,1.8v7.9h-2.1v-7.8c0-1.7-0.9-2.6-2.6-2.6c-1.4,0-2.3,0.6-2.8,1.7v8.7h-2.1v-11.9
			H1326.9z"/>
		<path class="st3" d="M1345.9,239.6c0-0.3,0.1-0.6,0.3-0.8c0.2-0.2,0.5-0.3,0.9-0.3c0.4,0,0.7,0.1,0.9,0.3c0.2,0.2,0.3,0.5,0.3,0.8
			c0,0.3-0.1,0.6-0.3,0.8c-0.2,0.2-0.5,0.3-0.9,0.3c-0.4,0-0.7-0.1-0.9-0.3C1346,240.2,1345.9,240,1345.9,239.6z M1348.2,254.7h-2.1
			v-11.9h2.1V254.7z"/>
		<path class="st3" d="M1357.2,254.9c-1.7,0-3-0.5-4.1-1.6c-1-1.1-1.6-2.5-1.6-4.2v-0.4c0-1.2,0.2-2.2,0.7-3.2
			c0.5-0.9,1.1-1.6,2-2.2c0.8-0.5,1.7-0.8,2.7-0.8c1.6,0,2.8,0.5,3.7,1.5c0.9,1,1.3,2.5,1.3,4.4v0.8h-8.3c0,1.2,0.4,2.1,1.1,2.8
			c0.7,0.7,1.5,1.1,2.6,1.1c0.7,0,1.4-0.1,1.9-0.4c0.5-0.3,1-0.7,1.4-1.2l1.3,1C1360.8,254.1,1359.3,254.9,1357.2,254.9z
			 M1357,244.2c-0.8,0-1.6,0.3-2.1,0.9c-0.6,0.6-0.9,1.4-1.1,2.5h6.2v-0.2c-0.1-1-0.3-1.8-0.9-2.4
			C1358.6,244.5,1357.9,244.2,1357,244.2z"/>
		<path class="st3" d="M1367,242.8l0.1,1.5c0.9-1.1,2.2-1.7,3.7-1.7c2.6,0,3.9,1.4,3.9,4.2v7.8h-2.1v-7.9c0-0.9-0.2-1.5-0.6-1.9
			c-0.4-0.4-1-0.6-1.9-0.6c-0.7,0-1.3,0.2-1.8,0.5c-0.5,0.4-0.9,0.8-1.2,1.4v8.5h-2.1v-11.9H1367z"/>
		<path class="st3" d="M1381.3,239.9v2.9h2.3v1.6h-2.3v7.4c0,0.5,0.1,0.8,0.3,1.1c0.2,0.2,0.6,0.4,1,0.4c0.2,0,0.6,0,1-0.1v1.6
			c-0.6,0.1-1.1,0.2-1.6,0.2c-0.9,0-1.6-0.3-2.1-0.8c-0.5-0.5-0.7-1.3-0.7-2.3v-7.4h-2.2v-1.6h2.2v-2.9H1381.3z"/>
		<path class="st3" d="M1385.9,248.6c0-1.2,0.2-2.2,0.7-3.1c0.5-0.9,1.1-1.6,2-2.2c0.8-0.5,1.8-0.8,2.9-0.8c1.7,0,3,0.6,4.1,1.7
			c1,1.1,1.6,2.6,1.6,4.5v0.1c0,1.2-0.2,2.2-0.7,3.1s-1.1,1.6-2,2.1c-0.9,0.5-1.8,0.8-2.9,0.8c-1.7,0-3-0.6-4.1-1.7
			c-1-1.1-1.6-2.6-1.6-4.4V248.6z M1388,248.9c0,1.3,0.3,2.4,0.9,3.2c0.6,0.8,1.5,1.2,2.5,1.2c1.1,0,1.9-0.4,2.5-1.2
			c0.6-0.8,0.9-1.9,0.9-3.4c0-1.3-0.3-2.4-1-3.2c-0.6-0.8-1.5-1.2-2.6-1.2c-1,0-1.9,0.4-2.5,1.2C1388.3,246.2,1388,247.4,1388,248.9
			z"/>
		<path class="st3" d="M1406.1,248.6c0-1.8,0.4-3.3,1.3-4.4c0.9-1.1,2.1-1.7,3.5-1.7c1.4,0,2.6,0.5,3.4,1.4v-6.2h2.1v16.9h-1.9
			l-0.1-1.3c-0.8,1-2,1.5-3.5,1.5c-1.4,0-2.6-0.6-3.5-1.7c-0.9-1.1-1.3-2.6-1.3-4.4V248.6z M1408.2,248.9c0,1.3,0.3,2.4,0.9,3.2
			c0.6,0.8,1.4,1.1,2.4,1.1c1.3,0,2.3-0.6,2.9-1.7V246c-0.6-1.1-1.6-1.7-2.9-1.7c-1,0-1.8,0.4-2.4,1.2
			C1408.5,246.2,1408.2,247.3,1408.2,248.9z"/>
		<path class="st3" d="M1425.4,254.9c-1.7,0-3-0.5-4.1-1.6c-1-1.1-1.6-2.5-1.6-4.2v-0.4c0-1.2,0.2-2.2,0.7-3.2
			c0.5-0.9,1.1-1.6,2-2.2c0.8-0.5,1.7-0.8,2.7-0.8c1.6,0,2.8,0.5,3.7,1.5c0.9,1,1.3,2.5,1.3,4.4v0.8h-8.3c0,1.2,0.4,2.1,1.1,2.8
			c0.7,0.7,1.5,1.1,2.6,1.1c0.7,0,1.4-0.1,1.9-0.4c0.5-0.3,1-0.7,1.4-1.2l1.3,1C1429,254.1,1427.5,254.9,1425.4,254.9z
			 M1425.2,244.2c-0.8,0-1.6,0.3-2.1,0.9c-0.6,0.6-0.9,1.4-1.1,2.5h6.2v-0.2c-0.1-1-0.3-1.8-0.9-2.4
			C1426.7,244.5,1426,244.2,1425.2,244.2z"/>
		<path class="st3" d="M1439.9,254.7v-16h5.4c1.8,0,3.1,0.4,4.1,1.1c0.9,0.7,1.4,1.8,1.4,3.2c0,0.7-0.2,1.4-0.7,2
			c-0.4,0.6-1,1-1.8,1.3c0.9,0.2,1.6,0.7,2.1,1.4c0.5,0.7,0.8,1.5,0.8,2.4c0,1.4-0.5,2.6-1.4,3.4c-1,0.8-2.3,1.2-4.1,1.2H1439.9z
			 M1442.1,245.5h3.3c1,0,1.7-0.2,2.3-0.7c0.6-0.5,0.9-1.1,0.9-1.9c0-0.9-0.3-1.5-0.8-1.9c-0.5-0.4-1.3-0.6-2.4-0.6h-3.2V245.5z
			 M1442.1,247.2v5.8h3.6c1,0,1.8-0.3,2.4-0.8c0.6-0.5,0.9-1.2,0.9-2.1c0-1.9-1.1-2.9-3.2-2.9H1442.1z"/>
		<path class="st3" d="M1454.6,239.6c0-0.3,0.1-0.6,0.3-0.8c0.2-0.2,0.5-0.3,0.9-0.3c0.4,0,0.7,0.1,0.9,0.3c0.2,0.2,0.3,0.5,0.3,0.8
			c0,0.3-0.1,0.6-0.3,0.8c-0.2,0.2-0.5,0.3-0.9,0.3c-0.4,0-0.7-0.1-0.9-0.3C1454.8,240.2,1454.6,240,1454.6,239.6z M1456.9,254.7
			h-2.1v-11.9h2.1V254.7z"/>
		<path class="st3" d="M1463.1,254.7h-2.1v-16.9h2.1V254.7z"/>
		<path class="st3" d="M1469.4,254.7h-2.1v-16.9h2.1V254.7z"/>
		<path class="st3" d="M1478.4,254.9c-1.7,0-3-0.5-4.1-1.6c-1-1.1-1.6-2.5-1.6-4.2v-0.4c0-1.2,0.2-2.2,0.7-3.2
			c0.5-0.9,1.1-1.6,2-2.2c0.8-0.5,1.7-0.8,2.7-0.8c1.6,0,2.8,0.5,3.7,1.5c0.9,1,1.3,2.5,1.3,4.4v0.8h-8.3c0,1.2,0.4,2.1,1.1,2.8
			c0.7,0.7,1.5,1.1,2.6,1.1c0.7,0,1.4-0.1,1.9-0.4c0.5-0.3,1-0.7,1.4-1.2l1.3,1C1482,254.1,1480.5,254.9,1478.4,254.9z
			 M1478.2,244.2c-0.8,0-1.6,0.3-2.1,0.9c-0.6,0.6-0.9,1.4-1.1,2.5h6.2v-0.2c-0.1-1-0.3-1.8-0.9-2.4
			C1479.7,244.5,1479,244.2,1478.2,244.2z"/>
		<path class="st3" d="M1489.1,239.9v2.9h2.3v1.6h-2.3v7.4c0,0.5,0.1,0.8,0.3,1.1c0.2,0.2,0.6,0.4,1,0.4c0.2,0,0.6,0,1-0.1v1.6
			c-0.6,0.1-1.1,0.2-1.6,0.2c-0.9,0-1.6-0.3-2.1-0.8c-0.5-0.5-0.7-1.3-0.7-2.3v-7.4h-2.2v-1.6h2.2v-2.9H1489.1z"/>
		<path class="st3" d="M1499.5,254.9c-1.7,0-3-0.5-4.1-1.6c-1-1.1-1.6-2.5-1.6-4.2v-0.4c0-1.2,0.2-2.2,0.7-3.2
			c0.5-0.9,1.1-1.6,2-2.2c0.8-0.5,1.7-0.8,2.7-0.8c1.6,0,2.8,0.5,3.7,1.5c0.9,1,1.3,2.5,1.3,4.4v0.8h-8.3c0,1.2,0.4,2.1,1.1,2.8
			c0.7,0.7,1.5,1.1,2.6,1.1c0.7,0,1.4-0.1,1.9-0.4c0.5-0.3,1-0.7,1.4-1.2l1.3,1C1503.1,254.1,1501.6,254.9,1499.5,254.9z
			 M1499.2,244.2c-0.8,0-1.6,0.3-2.1,0.9c-0.6,0.6-0.9,1.4-1.1,2.5h6.2v-0.2c-0.1-1-0.3-1.8-0.9-2.4
			C1500.8,244.5,1500.1,244.2,1499.2,244.2z"/>
		<path class="st3" d="M1514.5,251.5c0-0.5-0.2-1-0.6-1.3c-0.4-0.3-1.2-0.6-2.2-0.8c-1.1-0.2-1.9-0.5-2.5-0.8
			c-0.6-0.3-1.1-0.7-1.4-1.1c-0.3-0.4-0.4-0.9-0.4-1.5c0-1,0.4-1.8,1.3-2.5c0.9-0.7,1.9-1,3.3-1c1.4,0,2.5,0.3,3.4,1
			c0.9,0.7,1.3,1.6,1.3,2.7h-2.1c0-0.6-0.2-1-0.7-1.4c-0.5-0.4-1.1-0.6-1.8-0.6c-0.8,0-1.4,0.2-1.8,0.5c-0.4,0.3-0.6,0.7-0.6,1.3
			c0,0.5,0.2,0.9,0.6,1.1c0.4,0.2,1.1,0.5,2.2,0.7c1,0.2,1.9,0.5,2.6,0.8s1.1,0.7,1.4,1.1c0.3,0.4,0.5,1,0.5,1.6
			c0,1.1-0.4,1.9-1.3,2.6c-0.9,0.6-2,1-3.4,1c-1,0-1.9-0.2-2.6-0.5c-0.8-0.3-1.4-0.8-1.8-1.4c-0.4-0.6-0.6-1.3-0.6-2h2.1
			c0,0.7,0.3,1.2,0.8,1.6c0.5,0.4,1.2,0.6,2.1,0.6c0.8,0,1.4-0.2,1.9-0.5C1514.2,252.4,1514.5,252,1514.5,251.5z"/>
		<path class="st3" d="M1530.3,251.7l2.9-8.9h2.2l-4.9,13.7c-0.8,2-2,3-3.6,3l-0.4,0l-0.8-0.1v-1.6l0.6,0c0.7,0,1.3-0.1,1.7-0.4
			c0.4-0.3,0.7-0.8,1-1.5l0.5-1.2l-4.4-11.7h2.3L1530.3,251.7z"/>
		<path class="st3" d="M1547.3,238.7l5.4,13l5.4-13h2.8v16h-2.2v-6.2l0.2-6.7l-5.4,12.9h-1.7l-5.4-12.9l0.2,6.7v6.2h-2.2v-16H1547.3
			z"/>
		<path class="st3" d="M1564.5,248.6c0-1.2,0.2-2.2,0.7-3.1c0.5-0.9,1.1-1.6,2-2.2c0.8-0.5,1.8-0.8,2.9-0.8c1.7,0,3,0.6,4.1,1.7
			c1,1.1,1.6,2.6,1.6,4.5v0.1c0,1.2-0.2,2.2-0.7,3.1c-0.5,0.9-1.1,1.6-2,2.1s-1.8,0.8-2.9,0.8c-1.7,0-3-0.6-4-1.7
			c-1-1.1-1.6-2.6-1.6-4.4V248.6z M1566.6,248.9c0,1.3,0.3,2.4,0.9,3.2c0.6,0.8,1.5,1.2,2.5,1.2c1.1,0,1.9-0.4,2.5-1.2
			c0.6-0.8,0.9-1.9,0.9-3.4c0-1.3-0.3-2.4-1-3.2c-0.6-0.8-1.5-1.2-2.5-1.2c-1,0-1.9,0.4-2.5,1.2
			C1566.9,246.2,1566.6,247.4,1566.6,248.9z"/>
		<path class="st3" d="M1580.9,242.8l0.1,1.5c0.9-1.1,2.2-1.7,3.7-1.7c2.6,0,3.9,1.4,3.9,4.2v7.8h-2.1v-7.9c0-0.9-0.2-1.5-0.6-1.9
			c-0.4-0.4-1-0.6-1.9-0.6c-0.7,0-1.3,0.2-1.8,0.5c-0.5,0.4-0.9,0.8-1.2,1.4v8.5h-2.1v-11.9H1580.9z"/>
		<path class="st3" d="M1597.4,254.9c-1.7,0-3-0.5-4.1-1.6c-1-1.1-1.6-2.5-1.6-4.2v-0.4c0-1.2,0.2-2.2,0.7-3.2
			c0.5-0.9,1.1-1.6,2-2.2c0.8-0.5,1.7-0.8,2.7-0.8c1.6,0,2.8,0.5,3.7,1.5c0.9,1,1.3,2.5,1.3,4.4v0.8h-8.3c0,1.2,0.4,2.1,1.1,2.8
			c0.7,0.7,1.5,1.1,2.6,1.1c0.7,0,1.4-0.1,1.9-0.4c0.5-0.3,1-0.7,1.4-1.2l1.3,1C1601,254.1,1599.5,254.9,1597.4,254.9z
			 M1597.2,244.2c-0.8,0-1.6,0.3-2.1,0.9c-0.6,0.6-0.9,1.4-1.1,2.5h6.2v-0.2c-0.1-1-0.3-1.8-0.9-2.4
			C1598.7,244.5,1598.1,244.2,1597.2,244.2z"/>
		<path class="st3" d="M1604.7,248.6c0-1.8,0.4-3.3,1.3-4.4c0.9-1.1,2.1-1.7,3.5-1.7c1.4,0,2.6,0.5,3.4,1.4v-6.2h2.1v16.9h-1.9
			l-0.1-1.3c-0.8,1-2,1.5-3.5,1.5c-1.4,0-2.6-0.6-3.5-1.7c-0.9-1.1-1.3-2.6-1.3-4.4V248.6z M1606.8,248.9c0,1.3,0.3,2.4,0.9,3.2
			c0.6,0.8,1.4,1.1,2.4,1.1c1.3,0,2.3-0.6,2.9-1.7V246c-0.6-1.1-1.6-1.7-2.9-1.7c-1,0-1.8,0.4-2.4,1.2
			C1607.1,246.2,1606.8,247.3,1606.8,248.9z"/>
		<path class="st3" d="M1626.5,254.7c-0.1-0.2-0.2-0.7-0.3-1.3c-1,1-2.1,1.5-3.5,1.5c-1.2,0-2.2-0.3-3-1c-0.8-0.7-1.2-1.5-1.2-2.5
			c0-1.2,0.5-2.2,1.5-2.9s2.3-1,4.1-1h2v-0.9c0-0.7-0.2-1.3-0.7-1.7c-0.4-0.4-1.1-0.6-1.9-0.6c-0.7,0-1.4,0.2-1.9,0.5
			c-0.5,0.4-0.8,0.8-0.8,1.3h-2.1c0-0.6,0.2-1.2,0.7-1.7c0.4-0.6,1-1,1.8-1.3c0.7-0.3,1.6-0.5,2.5-0.5c1.4,0,2.5,0.3,3.3,1
			c0.8,0.7,1.2,1.6,1.2,2.8v5.5c0,1.1,0.1,2,0.4,2.6v0.2H1626.5z M1623,253.1c0.7,0,1.3-0.2,1.9-0.5c0.6-0.3,1-0.8,1.3-1.3v-2.4
			h-1.6c-2.6,0-3.9,0.7-3.9,2.2c0,0.6,0.2,1.1,0.7,1.5C1621.8,252.9,1622.4,253.1,1623,253.1z"/>
		<path class="st3" d="M1639.3,251.5c0-0.5-0.2-1-0.6-1.3c-0.4-0.3-1.2-0.6-2.2-0.8c-1.1-0.2-1.9-0.5-2.5-0.8
			c-0.6-0.3-1.1-0.7-1.4-1.1c-0.3-0.4-0.4-0.9-0.4-1.5c0-1,0.4-1.8,1.3-2.5c0.9-0.7,1.9-1,3.3-1c1.4,0,2.5,0.3,3.4,1
			c0.9,0.7,1.3,1.6,1.3,2.7h-2.1c0-0.6-0.2-1-0.7-1.4c-0.5-0.4-1.1-0.6-1.8-0.6c-0.8,0-1.4,0.2-1.8,0.5c-0.4,0.3-0.6,0.7-0.6,1.3
			c0,0.5,0.2,0.9,0.6,1.1c0.4,0.2,1.1,0.5,2.2,0.7c1,0.2,1.9,0.5,2.6,0.8c0.7,0.3,1.1,0.7,1.4,1.1c0.3,0.4,0.5,1,0.5,1.6
			c0,1.1-0.4,1.9-1.3,2.6s-2,1-3.4,1c-1,0-1.9-0.2-2.6-0.5c-0.8-0.3-1.4-0.8-1.8-1.4c-0.4-0.6-0.6-1.3-0.6-2h2.1
			c0,0.7,0.3,1.2,0.8,1.6c0.5,0.4,1.2,0.6,2.1,0.6c0.8,0,1.4-0.2,1.9-0.5C1639.1,252.4,1639.3,252,1639.3,251.5z"/>
		<path class="st3" d="M1201.8,273.2h-6.5l-1.5,3.9h-2.1l5.9-14.9h1.8l5.9,14.9h-2.1L1201.8,273.2z M1195.9,271.6h5.2l-2.6-7
			L1195.9,271.6z"/>
		<path class="st3" d="M1207.2,271.5c0-1.7,0.4-3.1,1.2-4.1c0.8-1,1.9-1.5,3.3-1.5c1.4,0,2.4,0.4,3.2,1.3l0.1-1.1h1.8v15.3h-2v-5.3
			c-0.8,0.8-1.8,1.2-3.2,1.2c-1.4,0-2.5-0.5-3.3-1.6c-0.8-1-1.2-2.4-1.2-4.1V271.5z M1209.1,271.7c0,1.3,0.3,2.3,0.8,3
			c0.6,0.7,1.3,1.1,2.2,1.1c1.2,0,2.1-0.5,2.7-1.5v-5.4c-0.6-1-1.5-1.5-2.6-1.5c-0.9,0-1.7,0.4-2.3,1.1
			C1209.4,269.2,1209.1,270.3,1209.1,271.7z"/>
		<path class="st3" d="M1227.6,276c-0.8,0.9-1.9,1.3-3.4,1.3c-1.2,0-2.2-0.3-2.8-1c-0.6-0.7-1-1.7-1-3V266h2v7.2
			c0,1.7,0.7,2.5,2.1,2.5c1.5,0,2.5-0.5,3-1.6V266h2v11.1h-1.9L1227.6,276z"/>
		<path class="st3" d="M1235.2,261.4h2.4l-2.8,3l-1.6,0L1235.2,261.4z M1235.1,277.1h-2V266h2V277.1z"/>
		<path class="st3" d="M1249.6,277.3c-1.6,0-2.8-0.5-3.8-1.5c-1-1-1.5-2.3-1.5-4v-0.3c0-1.1,0.2-2.1,0.7-2.9c0.4-0.9,1-1.5,1.8-2
			s1.6-0.7,2.5-0.7c1.5,0,2.6,0.5,3.5,1.4c0.8,0.9,1.2,2.3,1.2,4.1v0.8h-7.8c0,1.1,0.4,2,1,2.6c0.6,0.7,1.4,1,2.4,1
			c0.7,0,1.3-0.1,1.8-0.4c0.5-0.3,0.9-0.6,1.3-1.1l1.2,0.9C1252.9,276.6,1251.5,277.3,1249.6,277.3z M1249.3,267.4
			c-0.8,0-1.5,0.3-2,0.8s-0.9,1.3-1,2.3h5.7v-0.1c-0.1-1-0.3-1.7-0.8-2.2S1250.1,267.4,1249.3,267.4z"/>
		<path class="st3" d="M1258.7,266l0.1,1.4c0.9-1.1,2-1.6,3.4-1.6c2.4,0,3.6,1.3,3.7,4v7.3h-2v-7.3c0-0.8-0.2-1.4-0.6-1.8
			c-0.4-0.4-0.9-0.6-1.7-0.6c-0.6,0-1.2,0.2-1.7,0.5c-0.5,0.3-0.9,0.8-1.1,1.3v7.9h-2V266H1258.7z"/>
		<path class="st3" d="M1277.1,266l0.1,1.4c0.9-1.1,2-1.6,3.4-1.6c2.4,0,3.6,1.3,3.7,4v7.3h-2v-7.3c0-0.8-0.2-1.4-0.6-1.8
			c-0.4-0.4-0.9-0.6-1.7-0.6c-0.6,0-1.2,0.2-1.7,0.5c-0.5,0.3-0.9,0.8-1.1,1.3v7.9h-2V266H1277.1z"/>
		<path class="st3" d="M1294.9,276c-0.8,0.9-1.9,1.3-3.4,1.3c-1.2,0-2.2-0.3-2.8-1c-0.6-0.7-1-1.7-1-3V266h2v7.2
			c0,1.7,0.7,2.5,2.1,2.5c1.5,0,2.5-0.5,3-1.6V266h2v11.1h-1.9L1294.9,276z"/>
		<path class="st3" d="M1305,277.3c-1.6,0-2.8-0.5-3.8-1.5c-1-1-1.5-2.3-1.5-4v-0.3c0-1.1,0.2-2.1,0.7-2.9c0.4-0.9,1-1.5,1.8-2
			c0.8-0.5,1.6-0.7,2.5-0.7c1.5,0,2.6,0.5,3.5,1.4c0.8,0.9,1.2,2.3,1.2,4.1v0.8h-7.8c0,1.1,0.4,2,1,2.6c0.6,0.7,1.4,1,2.4,1
			c0.7,0,1.3-0.1,1.8-0.4c0.5-0.3,0.9-0.6,1.3-1.1l1.2,0.9C1308.4,276.6,1307,277.3,1305,277.3z M1304.8,267.4c-0.8,0-1.5,0.3-2,0.8
			s-0.9,1.3-1,2.3h5.7v-0.1c-0.1-1-0.3-1.7-0.8-2.2C1306.3,267.7,1305.6,267.4,1304.8,267.4z"/>
		<path class="st3" d="M1319,274.2c0-0.5-0.2-0.9-0.6-1.2c-0.4-0.3-1.1-0.5-2.1-0.7c-1-0.2-1.8-0.5-2.4-0.7c-0.6-0.3-1-0.6-1.3-1
			c-0.3-0.4-0.4-0.9-0.4-1.4c0-0.9,0.4-1.7,1.2-2.3c0.8-0.6,1.8-0.9,3-0.9c1.3,0,2.4,0.3,3.2,1c0.8,0.6,1.2,1.5,1.2,2.5h-2
			c0-0.5-0.2-1-0.7-1.3c-0.5-0.4-1-0.6-1.7-0.6c-0.7,0-1.3,0.2-1.7,0.5c-0.4,0.3-0.6,0.7-0.6,1.2c0,0.5,0.2,0.8,0.6,1
			c0.4,0.2,1,0.5,2,0.7c1,0.2,1.8,0.5,2.4,0.8c0.6,0.3,1.1,0.6,1.3,1.1c0.3,0.4,0.4,0.9,0.4,1.5c0,1-0.4,1.8-1.2,2.4
			c-0.8,0.6-1.9,0.9-3.2,0.9c-0.9,0-1.7-0.2-2.4-0.5c-0.7-0.3-1.3-0.8-1.7-1.3s-0.6-1.2-0.6-1.8h2c0,0.6,0.3,1.1,0.8,1.5
			c0.5,0.4,1.1,0.6,1.9,0.6c0.7,0,1.3-0.1,1.8-0.4C1318.8,275.1,1319,274.7,1319,274.2z"/>
		<path class="st3" d="M1326.7,263.4v2.7h2.1v1.5h-2.1v6.9c0,0.4,0.1,0.8,0.3,1c0.2,0.2,0.5,0.3,1,0.3c0.2,0,0.5,0,0.9-0.1v1.5
			c-0.5,0.1-1,0.2-1.5,0.2c-0.9,0-1.5-0.3-2-0.8c-0.4-0.5-0.7-1.2-0.7-2.2v-6.9h-2.1V266h2.1v-2.7H1326.7z"/>
		<path class="st3" d="M1337.2,267.7c-0.3,0-0.6-0.1-1-0.1c-1.3,0-2.2,0.5-2.6,1.6v7.9h-2V266h1.9l0,1.3c0.6-1,1.6-1.5,2.7-1.5
			c0.4,0,0.7,0,0.9,0.1V267.7z"/>
		<path class="st3" d="M1338.8,271.5c0-1.1,0.2-2.1,0.7-2.9c0.4-0.9,1.1-1.5,1.8-2c0.8-0.5,1.7-0.7,2.7-0.7c1.6,0,2.8,0.5,3.8,1.6
			c1,1,1.4,2.4,1.4,4.2v0.1c0,1.1-0.2,2-0.6,2.9s-1,1.5-1.8,2c-0.8,0.5-1.7,0.7-2.7,0.7c-1.6,0-2.8-0.5-3.8-1.6
			c-1-1-1.4-2.4-1.4-4.1V271.5z M1340.8,271.7c0,1.2,0.3,2.2,0.9,3c0.6,0.7,1.4,1.1,2.4,1.1c1,0,1.8-0.4,2.4-1.1
			c0.6-0.8,0.9-1.8,0.9-3.2c0-1.2-0.3-2.2-0.9-3c-0.6-0.8-1.4-1.1-2.4-1.1c-1,0-1.7,0.4-2.3,1.1
			C1341.1,269.3,1340.8,270.3,1340.8,271.7z"/>
		<path class="st3" d="M1367.8,271.7c0,1.7-0.4,3-1.2,4.1c-0.8,1-1.9,1.5-3.2,1.5c-1.4,0-2.5-0.4-3.3-1.3v5.3h-2V266h1.8l0.1,1.2
			c0.8-1,1.9-1.4,3.3-1.4c1.4,0,2.5,0.5,3.3,1.5c0.8,1,1.2,2.4,1.2,4.2V271.7z M1365.9,271.5c0-1.2-0.3-2.2-0.8-3
			c-0.6-0.7-1.3-1.1-2.3-1.1c-1.2,0-2.1,0.5-2.7,1.5v5.3c0.6,1,1.5,1.5,2.7,1.5c0.9,0,1.7-0.4,2.2-1.1S1365.9,272.9,1365.9,271.5z"
			/>
		<path class="st3" d="M1370.3,271.5c0-1.1,0.2-2.1,0.7-2.9c0.4-0.9,1.1-1.5,1.8-2s1.7-0.7,2.7-0.7c1.6,0,2.8,0.5,3.8,1.6
			c1,1,1.4,2.4,1.4,4.2v0.1c0,1.1-0.2,2-0.6,2.9c-0.4,0.9-1,1.5-1.8,2c-0.8,0.5-1.7,0.7-2.7,0.7c-1.6,0-2.8-0.5-3.8-1.6
			c-1-1-1.4-2.4-1.4-4.1V271.5z M1372.3,271.7c0,1.2,0.3,2.2,0.9,3c0.6,0.7,1.4,1.1,2.4,1.1c1,0,1.8-0.4,2.4-1.1
			c0.6-0.8,0.9-1.8,0.9-3.2c0-1.2-0.3-2.2-0.9-3c-0.6-0.8-1.4-1.1-2.4-1.1c-1,0-1.7,0.4-2.3,1.1
			C1372.6,269.3,1372.3,270.3,1372.3,271.7z"/>
		<path class="st3" d="M1389.3,267.7c-0.3,0-0.6-0.1-1-0.1c-1.3,0-2.2,0.5-2.6,1.6v7.9h-2V266h1.9l0,1.3c0.6-1,1.6-1.5,2.7-1.5
			c0.4,0,0.7,0,0.9,0.1V267.7z"/>
		<path class="st3" d="M1394.8,263.4v2.7h2.1v1.5h-2.1v6.9c0,0.4,0.1,0.8,0.3,1c0.2,0.2,0.5,0.3,1,0.3c0.2,0,0.5,0,0.9-0.1v1.5
			c-0.5,0.1-1,0.2-1.5,0.2c-0.9,0-1.5-0.3-2-0.8c-0.4-0.5-0.7-1.2-0.7-2.2v-6.9h-2.1V266h2.1v-2.7H1394.8z"/>
		<path class="st3" d="M1406.9,277.1c-0.1-0.2-0.2-0.6-0.3-1.2c-0.9,0.9-2,1.4-3.3,1.4c-1.1,0-2.1-0.3-2.8-0.9
			c-0.7-0.6-1.1-1.4-1.1-2.3c0-1.2,0.5-2,1.4-2.7c0.9-0.6,2.2-1,3.8-1h1.9v-0.9c0-0.7-0.2-1.2-0.6-1.6c-0.4-0.4-1-0.6-1.8-0.6
			c-0.7,0-1.3,0.2-1.8,0.5c-0.5,0.3-0.7,0.8-0.7,1.2h-2c0-0.6,0.2-1.1,0.6-1.6c0.4-0.5,1-0.9,1.7-1.2c0.7-0.3,1.5-0.5,2.3-0.5
			c1.3,0,2.4,0.3,3.1,1c0.7,0.6,1.1,1.5,1.2,2.6v5.1c0,1,0.1,1.8,0.4,2.4v0.2H1406.9z M1403.6,275.7c0.6,0,1.2-0.2,1.7-0.5
			c0.6-0.3,0.9-0.7,1.2-1.2v-2.3h-1.5c-2.4,0-3.6,0.7-3.6,2c0,0.6,0.2,1.1,0.6,1.4C1402.5,275.5,1403,275.7,1403.6,275.7z"/>
		<path class="st3" d="M1414.3,277.1h-2v-15.7h2V277.1z"/>
	</g>
</g>
<g class="st4">
	<linearGradient id="SVGID_3_" gradientUnits="userSpaceOnUse" x1="583.1793" y1="187.6207" x2="583.1793" y2="95.785">
		<stop  offset="7.418119e-03" style="stop-color:#FFFFFF;stop-opacity:0"/>
		<stop  offset="0.9954" style="stop-color:#FFFFFF"/>
	</linearGradient>
	<path class="st5" d="M577,167.7l6.2,27.6l6.2-27.6h8.8v39.7h-6.7v-9.3l0.6-19l-6.7,28.2H581l-6.7-28.3l0.7,19v9.3h-6.7v-39.7H577z"
		/>
	<linearGradient id="SVGID_4_" gradientUnits="userSpaceOnUse" x1="613.8605" y1="187.6207" x2="613.8605" y2="95.785">
		<stop  offset="7.418119e-03" style="stop-color:#FFFFFF;stop-opacity:0"/>
		<stop  offset="0.9954" style="stop-color:#FFFFFF"/>
	</linearGradient>
	<path class="st6" d="M626,188.4c0,3.9-0.5,7.3-1.5,10.3c-1,3-2.4,5.3-4.3,6.9c-1.9,1.6-4,2.4-6.3,2.4c-2.4,0-4.5-0.8-6.3-2.3
		c-1.8-1.6-3.3-3.8-4.3-6.7c-1-2.9-1.6-6.2-1.6-10v-2.2c0-3.9,0.5-7.3,1.5-10.3c1-3,2.4-5.3,4.3-6.9c1.9-1.6,4-2.4,6.4-2.4
		c2.4,0,4.5,0.8,6.3,2.4c1.8,1.6,3.3,3.9,4.3,6.8c1,3,1.5,6.3,1.6,10.2V188.4z M619.2,186.7c0-3.9-0.5-6.9-1.4-9
		c-0.9-2-2.2-3.1-4-3.1c-3.4,0-5.1,3.6-5.3,10.8l0,2.9c0,3.9,0.5,6.9,1.4,9c0.9,2.1,2.2,3.1,4,3.1c1.7,0,3-1,3.9-3.1
		c0.9-2.1,1.4-5,1.4-8.9V186.7z"/>
	<linearGradient id="SVGID_5_" gradientUnits="userSpaceOnUse" x1="641.1199" y1="187.6207" x2="641.1199" y2="95.785">
		<stop  offset="7.418119e-03" style="stop-color:#FFFFFF;stop-opacity:0"/>
		<stop  offset="0.9954" style="stop-color:#FFFFFF"/>
	</linearGradient>
	<path class="st7" d="M652.7,207.4h-6.7l-9.9-24.7v24.7h-6.7v-39.7h6.7l9.8,24.7v-24.7h6.7V207.4z"/>
	<linearGradient id="SVGID_6_" gradientUnits="userSpaceOnUse" x1="666.5919" y1="187.6207" x2="666.5919" y2="95.785">
		<stop  offset="7.418119e-03" style="stop-color:#FFFFFF;stop-opacity:0"/>
		<stop  offset="0.9954" style="stop-color:#FFFFFF"/>
	</linearGradient>
	<path class="st8" d="M674.2,190.6h-10.6v9.5h12.5v7.4H657v-39.7h19.2v7.4h-12.5v8.4h10.6V190.6z"/>
	<linearGradient id="SVGID_7_" gradientUnits="userSpaceOnUse" x1="689.8276" y1="187.6207" x2="689.8276" y2="95.785">
		<stop  offset="7.418119e-03" style="stop-color:#FFFFFF;stop-opacity:0"/>
		<stop  offset="0.9954" style="stop-color:#FFFFFF"/>
	</linearGradient>
	<path class="st9" d="M678.9,207.4v-39.7h9c2.5,0,4.7,0.8,6.6,2.4c2,1.6,3.5,3.8,4.6,6.7c1.1,2.9,1.7,6.1,1.7,9.7v1.8
		c0,3.6-0.5,6.9-1.6,9.8c-1.1,2.9-2.6,5.1-4.5,6.8c-2,1.6-4.1,2.4-6.5,2.5H678.9z M685.6,175.1v24.9h2.3c1.9,0,3.4-1,4.4-2.9
		c1-2,1.5-4.9,1.5-8.7v-1.7c0-3.8-0.5-6.7-1.5-8.7c-1-1.9-2.5-2.9-4.5-2.9H685.6z"/>
	<linearGradient id="SVGID_8_" gradientUnits="userSpaceOnUse" x1="715.0413" y1="187.6207" x2="715.0413" y2="95.785">
		<stop  offset="7.418119e-03" style="stop-color:#FFFFFF;stop-opacity:0"/>
		<stop  offset="0.9954" style="stop-color:#FFFFFF"/>
	</linearGradient>
	<path class="st10" d="M719.6,200h-9.2l-1.6,7.4h-7.2l10.2-39.7h6.3l10.3,39.7h-7.2L719.6,200z M712,192.6h6l-3-13.8L712,192.6z"/>
	<linearGradient id="SVGID_9_" gradientUnits="userSpaceOnUse" x1="740.5613" y1="187.6207" x2="740.5613" y2="95.785">
		<stop  offset="7.418119e-03" style="stop-color:#FFFFFF;stop-opacity:0"/>
		<stop  offset="0.9954" style="stop-color:#FFFFFF"/>
	</linearGradient>
	<path class="st11" d="M744.8,196.9c0-1.4-0.3-2.5-1-3.3c-0.7-0.8-1.9-1.6-3.7-2.4c-1.7-0.8-3.2-1.6-4.3-2.4
		c-3.6-2.5-5.4-6-5.4-10.4c0-2.2,0.4-4.1,1.3-5.8c0.9-1.7,2.2-3,3.8-3.9c1.6-0.9,3.5-1.4,5.5-1.4c2,0,3.8,0.5,5.4,1.5
		c1.6,1,2.8,2.5,3.7,4.3c0.9,1.9,1.3,4,1.3,6.4h-6.7c0-1.6-0.3-2.9-1-3.8c-0.7-0.9-1.6-1.3-2.8-1.3c-1.2,0-2.1,0.4-2.8,1.1
		c-0.7,0.8-1,1.7-1,2.9c0,1,0.4,1.9,1.1,2.8c0.8,0.8,2.1,1.7,4,2.6c1.9,0.9,3.5,1.8,4.7,2.8c3,2.5,4.5,5.9,4.5,10.2
		c0,3.5-0.9,6.2-2.8,8.2c-1.8,2-4.4,3-7.6,3c-2.3,0-4.3-0.6-6.1-1.7c-1.8-1.2-3.2-2.7-4.1-4.7c-0.9-2-1.4-4.3-1.4-6.9h6.7
		c0,2.1,0.4,3.7,1.2,4.7c0.8,1,2,1.5,3.8,1.5c1.1,0,2-0.3,2.6-1C744.5,199.1,744.8,198.1,744.8,196.9z"/>
</g>
<g>
	<g>
		<path class="st3" d="M528.2,167.9H408.6c-0.8,0-1.4-0.6-1.4-1.4V93.1c0-0.8,0.6-1.4,1.4-1.4h119.6c0.8,0,1.4,0.6,1.4,1.4v73.4
			C529.6,167.3,529,167.9,528.2,167.9z M410,165.2h116.8V94.5H410V165.2z"/>
		<path class="st3" d="M467.6,149.9c-11.5,0-20.9-9.4-20.9-20.9s9.4-20.9,20.9-20.9s20.9,9.4,20.9,20.9S479.1,149.9,467.6,149.9z
			 M467.6,110.9c-10,0-18.1,8.1-18.1,18.1s8.1,18.1,18.1,18.1s18.1-8.1,18.1-18.1S477.5,110.9,467.6,110.9z"/>
		<g>
			<circle class="st0" cx="526.8" cy="157.5" r="19.8"/>
			<path class="st3" d="M526.8,178.6c-11.7,0-21.2-9.5-21.2-21.2s9.5-21.2,21.2-21.2c11.7,0,21.2,9.5,21.2,21.2
				S538.5,178.6,526.8,178.6z M526.8,139.1c-10.1,0-18.4,8.3-18.4,18.4c0,10.1,8.3,18.4,18.4,18.4s18.4-8.3,18.4-18.4
				C545.2,147.3,537,139.1,526.8,139.1z"/>
		</g>
		<g>
			<circle class="st0" cx="506.8" cy="167.8" r="19.8"/>
			<path class="st3" d="M506.8,189c-11.7,0-21.2-9.5-21.2-21.2s9.5-21.2,21.2-21.2s21.2,9.5,21.2,21.2S518.4,189,506.8,189z
				 M506.8,149.4c-10.1,0-18.4,8.3-18.4,18.4c0,10.1,8.3,18.4,18.4,18.4c10.1,0,18.4-8.3,18.4-18.4
				C525.2,157.7,516.9,149.4,506.8,149.4z"/>
		</g>
		<path class="st3" d="M410.3,113.6c-0.8,0-1.4-0.6-1.4-1.4s0.6-1.4,1.4-1.4c9.2,0,16.7-7.5,16.7-16.7c0-0.8,0.6-1.4,1.4-1.4
			c0.8,0,1.4,0.6,1.4,1.4C429.8,104.9,421,113.6,410.3,113.6z"/>
		<path class="st3" d="M525.1,113.6c-10.7,0-19.4-8.7-19.4-19.4c0-0.8,0.6-1.4,1.4-1.4c0.8,0,1.4,0.6,1.4,1.4
			c0,9.2,7.5,16.7,16.7,16.7c0.8,0,1.4,0.6,1.4,1.4C526.5,113,525.9,113.6,525.1,113.6z"/>
		<path class="st3" d="M428,166.7c-0.8,0-1.4-0.6-1.4-1.4c0-9.2-7.5-16.7-16.7-16.7c-0.8,0-1.4-0.6-1.4-1.4s0.6-1.4,1.4-1.4
			c10.7,0,19.4,8.7,19.4,19.4C429.4,166,428.8,166.7,428,166.7z"/>
	</g>
</g>
<linearGradient id="SVGID_10_" gradientUnits="userSpaceOnUse" x1="657.0604" y1="423.1436" x2="657.0604" y2="226.9678">
	<stop  offset="7.418119e-03" style="stop-color:#FFFFFF;stop-opacity:0"/>
	<stop  offset="0.9954" style="stop-color:#FFFFFF"/>
</linearGradient>
<path class="st12" d="M294.8,413.7c0,0,145.8-250.5,334.8-144.2c210.8,118.7,344.7-14.2,389.8-125.8v271.1"/>
<path class="st3" d="M295.9,414.3l-2.3-1.3c0.4-0.6,37.3-63.4,96.8-112.3c35-28.8,71-47.2,106.8-54.8c44.8-9.5,89.6-1.9,132.9,22.5
	c83.4,47,161.1,58.4,230.8,34c67.7-23.7,126.4-83.2,157.1-159.1l2.5,1c-30.9,76.6-90.3,136.6-158.7,160.6
	c-70.5,24.7-148.9,13.2-233-34.2c-42.8-24.1-86.9-31.6-131.1-22.2c-35.4,7.5-70.9,25.7-105.6,54.2
	C333,351.3,296.3,413.7,295.9,414.3z"/>
<g>
	<circle class="st1" cx="707.5" cy="304.9" r="8"/>
	<path class="st3" d="M707.5,313.7c-4.8,0-8.7-3.9-8.7-8.7c0-4.8,3.9-8.7,8.7-8.7s8.7,3.9,8.7,8.7
		C716.2,309.7,712.3,313.7,707.5,313.7z M707.5,297.7c-4,0-7.2,3.2-7.2,7.2c0,4,3.2,7.2,7.2,7.2s7.2-3.2,7.2-7.2
		C714.7,301,711.5,297.7,707.5,297.7z"/>
</g>
<circle class="st1" cx="290.8" cy="416.7" r="8"/>
<g>
	<circle class="st1" cx="1019.3" cy="143.7" r="8"/>
	<path class="st3" d="M1019.3,152.4c-4.8,0-8.7-3.9-8.7-8.7c0-4.8,3.9-8.7,8.7-8.7c4.8,0,8.7,3.9,8.7,8.7
		C1028,148.5,1024.1,152.4,1019.3,152.4z M1019.3,136.5c-4,0-7.2,3.2-7.2,7.2c0,4,3.2,7.2,7.2,7.2c4,0,7.2-3.2,7.2-7.2
		C1026.6,139.7,1023.3,136.5,1019.3,136.5z"/>
</g>
<g>
	<g>
		<path class="st3" d="M568.2,129.4V93.6h10.6c3.8,0,6.8,0.8,8.7,2.4s3,3.9,3,7c0,1.9-0.5,3.5-1.5,4.8c-1,1.4-2.4,2.4-4.2,2.9
			c2.1,0.5,3.8,1.5,5,3.1c1.3,1.6,1.9,3.4,1.9,5.5c0,3.2-1,5.6-3.1,7.4c-2,1.8-4.9,2.7-8.5,2.7H568.2z M571.2,109.7h8.3
			c2.5,0,4.5-0.6,5.9-1.8c1.4-1.1,2.1-2.8,2.1-5c0-2.3-0.7-4-2.2-5.1c-1.4-1.1-3.6-1.6-6.5-1.6h-7.6V109.7z M571.2,112.2v14.7h9.1
			c2.6,0,4.7-0.7,6.2-2c1.5-1.3,2.3-3.2,2.3-5.5c0-2.2-0.7-4-2.2-5.3c-1.5-1.3-3.5-1.9-6-1.9H571.2z"/>
		<path class="st3" d="M602.8,129.4h-3V93.6h3V129.4z"/>
		<path class="st3" d="M615.6,126.9h17.7v2.6h-20.8V93.6h3.1V126.9z"/>
		<path class="st3" d="M642.2,126.9h17.7v2.6h-20.8V93.6h3.1V126.9z"/>
		<path class="st3" d="M685.5,112.2h-16.8v14.6H688v2.6h-22.3V93.6h22.2v2.6h-19.2v13.5h16.8V112.2z"/>
		<path class="st3" d="M719.2,96.1h-12.3v33.3h-3V96.1h-12.3v-2.6h27.6V96.1z"/>
		<path class="st3" d="M744.8,112.2h-16.8v14.6h19.3v2.6H725V93.6h22.2v2.6h-19.2v13.5h16.8V112.2z"/>
		<path class="st3" d="M774,120.6c0-2-0.7-3.6-2.1-4.7c-1.4-1.2-4-2.3-7.7-3.3c-3.7-1-6.4-2.2-8.1-3.4c-2.4-1.7-3.6-4-3.6-6.8
			c0-2.7,1.1-5,3.4-6.7c2.3-1.7,5.1-2.6,8.7-2.6c2.4,0,4.5,0.5,6.4,1.4c1.9,0.9,3.3,2.2,4.4,3.8c1,1.6,1.6,3.5,1.6,5.5h-3.1
			c0-2.5-0.8-4.4-2.5-5.9c-1.7-1.5-3.9-2.2-6.7-2.2c-2.7,0-4.9,0.6-6.6,1.8c-1.6,1.2-2.4,2.8-2.4,4.8c0,1.8,0.7,3.3,2.2,4.5
			c1.5,1.2,3.8,2.2,7,3c3.2,0.9,5.7,1.8,7.3,2.7c1.7,0.9,2.9,2.1,3.7,3.4s1.3,2.9,1.3,4.7c0,2.8-1.1,5.1-3.4,6.8
			c-2.3,1.7-5.2,2.6-8.9,2.6c-2.5,0-4.8-0.5-7-1.4c-2.1-0.9-3.7-2.2-4.8-3.8c-1.1-1.6-1.6-3.5-1.6-5.6h3c0,2.5,0.9,4.5,2.8,6
			c1.9,1.5,4.4,2.2,7.5,2.2c2.8,0,5-0.6,6.7-1.8C773.2,124.3,774,122.7,774,120.6z"/>
		<path class="st3" d="M806.4,113.1l11-19.6h3.5l-13,22.4v13.5h-3v-13.5l-12.9-22.4h3.6L806.4,113.1z"/>
	</g>
</g>
<g>
	<path class="st1" d="M577,139.4l6.2,19.4l6.2-19.4h8.8v27.8h-6.7v-6.5l0.6-13.3l-6.7,19.8H581l-6.7-19.8l0.6,13.3v6.5h-6.7v-27.8
		H577z"/>
	<path class="st1" d="M626,153.8c0,2.7-0.5,5.1-1.5,7.2c-1,2.1-2.4,3.7-4.3,4.8c-1.9,1.1-4,1.7-6.3,1.7c-2.4,0-4.5-0.5-6.3-1.6
		c-1.8-1.1-3.3-2.6-4.3-4.7c-1-2-1.6-4.4-1.6-7v-1.6c0-2.7,0.5-5.1,1.5-7.2c1-2.1,2.4-3.7,4.3-4.8c1.9-1.1,4-1.7,6.4-1.7
		c2.4,0,4.5,0.6,6.3,1.7c1.8,1.1,3.3,2.7,4.3,4.8c1,2.1,1.5,4.4,1.6,7.1V153.8z M619.2,152.7c0-2.8-0.5-4.9-1.4-6.3
		c-0.9-1.4-2.2-2.2-4-2.2c-3.4,0-5.1,2.5-5.3,7.6l0,2c0,2.7,0.5,4.8,1.4,6.3c0.9,1.5,2.2,2.2,4,2.2c1.7,0,3-0.7,3.9-2.2
		c0.9-1.4,1.4-3.5,1.4-6.2V152.7z"/>
	<path class="st1" d="M652.7,167.2h-6.7l-9.9-17.3v17.3h-6.7v-27.8h6.7l9.8,17.3v-17.3h6.7V167.2z"/>
	<path class="st1" d="M674.2,155.4h-10.6v6.7h12.5v5.2H657v-27.8h19.2v5.2h-12.5v5.9h10.6V155.4z"/>
	<path class="st1" d="M678.9,167.2v-27.8h9c2.5,0,4.7,0.6,6.6,1.7c2,1.1,3.5,2.7,4.6,4.7c1.1,2,1.7,4.3,1.7,6.8v1.3
		c0,2.5-0.5,4.8-1.6,6.9c-1.1,2-2.6,3.6-4.6,4.7c-2,1.1-4.1,1.7-6.5,1.7H678.9z M685.6,144.5V162h2.3c1.9,0,3.4-0.7,4.4-2.1
		s1.5-3.4,1.5-6.1v-1.2c0-2.7-0.5-4.7-1.5-6.1c-1-1.4-2.5-2-4.5-2H685.6z"/>
	<path class="st1" d="M719.6,162h-9.2l-1.6,5.2h-7.2l10.2-27.8h6.3l10.3,27.8h-7.2L719.6,162z M712,156.8h6l-3-9.7L712,156.8z"/>
	<path class="st1" d="M744.8,159.8c0-1-0.3-1.7-1-2.3c-0.7-0.5-1.9-1.1-3.7-1.7c-1.7-0.6-3.2-1.2-4.3-1.7c-3.6-1.8-5.4-4.2-5.4-7.3
		c0-1.5,0.4-2.9,1.3-4.1c0.9-1.2,2.2-2.1,3.8-2.8c1.6-0.7,3.5-1,5.5-1c2,0,3.8,0.4,5.4,1.1c1.6,0.7,2.8,1.7,3.7,3
		c0.9,1.3,1.3,2.8,1.3,4.5h-6.7c0-1.1-0.3-2-1-2.6c-0.7-0.6-1.6-0.9-2.8-0.9c-1.2,0-2.1,0.3-2.8,0.8c-0.7,0.5-1,1.2-1,2
		c0,0.7,0.4,1.4,1.1,1.9c0.8,0.6,2.1,1.2,4,1.8c1.9,0.6,3.5,1.3,4.7,2c3,1.7,4.5,4.1,4.5,7.2c0,2.4-0.9,4.3-2.8,5.7
		c-1.8,1.4-4.4,2.1-7.6,2.1c-2.3,0-4.3-0.4-6.1-1.2c-1.8-0.8-3.2-1.9-4.1-3.3c-0.9-1.4-1.4-3-1.4-4.9h6.7c0,1.5,0.4,2.6,1.2,3.3
		c0.8,0.7,2,1.1,3.8,1.1c1.1,0,2-0.2,2.6-0.7C744.5,161.3,744.8,160.7,744.8,159.8z"/>
</g>
<polygon class="st13" points="1018.6,126.2 1017.1,126.2 1017.1,110.5 854.7,110.5 854.7,109 1018.6,109 "/>
<rect x="516.8" y="27.4" class="st14" width="2" height="420.6"/>
<rect x="350.7" y="27.4" class="st14" width="2" height="420.6"/>
<rect x="677" y="27.4" class="st14" width="2" height="420.6"/>
<rect x="196" y="27.4" class="st14" width="2" height="420.6"/>
<rect x="837.2" y="27.4" class="st14" width="2" height="420.6"/>
<rect x="997.4" y="27.4" class="st14" width="2" height="420.6"/>
<rect x="1156" y="27.4" class="st14" width="2" height="420.6"/>
</svg>
