<?xml version="1.0" encoding="utf-8"?>
<!-- Generator: Adobe Illustrator 21.0.0, SVG Export Plug-In . SVG Version: 6.00 Build 0)  -->
<svg version="1.1" id="Capa_1" xmlns="http://www.w3.org/2000/svg" xmlns:xlink="http://www.w3.org/1999/xlink" x="0px" y="0px"
	 viewBox="0 0 150 139" style="enable-background:new 0 0 150 139;" xml:space="preserve">
<style type="text/css">
	.st0{fill:#850024;}
</style>
<path class="st0" d="M75.1,101.1c4.7,0,8.5,3.7,8.6,8.4c0.1,4.8-3.8,8.7-8.6,8.8c-4.8,0-8.7-3.9-8.6-8.7
	C66.6,104.9,70.4,101.1,75.1,101.1z"/>
<path class="st0" d="M137.7,137.3H12c-4,0-7.6-2.1-9.7-5.5c-2-3.5-2.1-7.6-0.2-11.2L64.4,6.5c2-3.6,5.7-5.9,9.9-5.9h0
	c4.1,0,7.9,2.2,9.9,5.8l63.4,114.2c2,3.5,1.9,7.7-0.1,11.2C145.4,135.2,141.7,137.3,137.7,137.3z M13,125.5h124.1L74.3,13L13,125.5z
	"/>
<path class="st0" d="M82.1,96H68.1c-0.4,0-0.7-0.3-0.7-0.7V49.6c0-0.4,0.3-0.7,0.7-0.7h13.9c0.4,0,0.7,0.3,0.7,0.7v45.8
	C82.7,95.7,82.4,96,82.1,96z"/>
</svg>
