<?xml version="1.0" encoding="utf-8"?>
<!-- Generator: Adobe Illustrator 21.0.0, SVG Export Plug-In . SVG Version: 6.00 Build 0)  -->
<svg version="1.1" id="Capa_1" xmlns="http://www.w3.org/2000/svg" xmlns:xlink="http://www.w3.org/1999/xlink" x="0px" y="0px"
	 viewBox="0 0 150 150" style="enable-background:new 0 0 150 150;" xml:space="preserve">
<style type="text/css">
	.st0{fill:#850024;}
</style>
<path class="st0" d="M75,101.7c-4.1,0-10.6-3.3-10.6-7.4V8.4C64.4,4.3,70.9,1,75,1s10.6,3.3,10.6,7.4v85.9
	C85.6,98.3,79.1,101.7,75,101.7z"/>
<path class="st0" d="M91.1,147.3H58.9c-20.8,0-37.7-16.9-37.7-37.7c0-4.1,3.3-7.4,7.4-7.4s7.4,3.3,7.4,7.4
	c0,12.6,10.3,22.9,22.9,22.9h32.3c12.6,0,22.9-10.3,22.9-22.9v-0.8c0-4.1,3.3-7.4,7.4-7.4s7.4,3.3,7.4,7.4v0.8
	C128.9,130.4,111.9,147.3,91.1,147.3z"/>
<path class="st0" d="M101.3,71.1c2.9,0,4.5,3.5,2.6,5.7L91.9,90.3l-11.5,13.8c-2.8,3.3-7.9,3.4-10.7,0.1L58.2,90.8l-12-14
	c-1.9-2.2-0.3-5.6,2.6-5.6H101.3z"/>
</svg>
